%TF.GenerationSoftware,KiCad,Pcbnew,7.0.9*%
%TF.CreationDate,2024-12-01T07:09:43+09:00*%
%TF.ProjectId,raspi_comm_if_hat,72617370-695f-4636-9f6d-6d5f69665f68,rev?*%
%TF.SameCoordinates,PX5f5e100PY68e7780*%
%TF.FileFunction,Legend,Bot*%
%TF.FilePolarity,Positive*%
%FSLAX46Y46*%
G04 Gerber Fmt 4.6, Leading zero omitted, Abs format (unit mm)*
G04 Created by KiCad (PCBNEW 7.0.9) date 2024-12-01 07:09:43*
%MOMM*%
%LPD*%
G01*
G04 APERTURE LIST*
%ADD10C,0.150000*%
%ADD11C,0.120000*%
G04 APERTURE END LIST*
D10*
X5454819Y52813334D02*
X6169104Y52813334D01*
X6169104Y52813334D02*
X6311961Y52860953D01*
X6311961Y52860953D02*
X6407200Y52956191D01*
X6407200Y52956191D02*
X6454819Y53099048D01*
X6454819Y53099048D02*
X6454819Y53194286D01*
X5550057Y52384762D02*
X5502438Y52337143D01*
X5502438Y52337143D02*
X5454819Y52241905D01*
X5454819Y52241905D02*
X5454819Y52003810D01*
X5454819Y52003810D02*
X5502438Y51908572D01*
X5502438Y51908572D02*
X5550057Y51860953D01*
X5550057Y51860953D02*
X5645295Y51813334D01*
X5645295Y51813334D02*
X5740533Y51813334D01*
X5740533Y51813334D02*
X5883390Y51860953D01*
X5883390Y51860953D02*
X6454819Y52432381D01*
X6454819Y52432381D02*
X6454819Y51813334D01*
D11*
%TO.C,J2*%
X57990000Y55080000D02*
X57990000Y49880000D01*
X7070000Y55080000D02*
X57990000Y55080000D01*
X7070000Y55080000D02*
X7070000Y52480000D01*
X9670000Y52480000D02*
X9670000Y49880000D01*
X7070000Y52480000D02*
X9670000Y52480000D01*
X7070000Y51210000D02*
X7070000Y49880000D01*
X9670000Y49880000D02*
X57990000Y49880000D01*
X7070000Y49880000D02*
X8400000Y49880000D01*
%TD*%
M02*
