%TF.GenerationSoftware,KiCad,Pcbnew,7.0.9*%
%TF.CreationDate,2024-12-01T07:09:43+09:00*%
%TF.ProjectId,raspi_comm_if_hat,72617370-695f-4636-9f6d-6d5f69665f68,rev?*%
%TF.SameCoordinates,PX5f5e100PY68e7780*%
%TF.FileFunction,Soldermask,Top*%
%TF.FilePolarity,Negative*%
%FSLAX46Y46*%
G04 Gerber Fmt 4.6, Leading zero omitted, Abs format (unit mm)*
G04 Created by KiCad (PCBNEW 7.0.9) date 2024-12-01 07:09:43*
%MOMM*%
%LPD*%
G01*
G04 APERTURE LIST*
G04 Aperture macros list*
%AMRoundRect*
0 Rectangle with rounded corners*
0 $1 Rounding radius*
0 $2 $3 $4 $5 $6 $7 $8 $9 X,Y pos of 4 corners*
0 Add a 4 corners polygon primitive as box body*
4,1,4,$2,$3,$4,$5,$6,$7,$8,$9,$2,$3,0*
0 Add four circle primitives for the rounded corners*
1,1,$1+$1,$2,$3*
1,1,$1+$1,$4,$5*
1,1,$1+$1,$6,$7*
1,1,$1+$1,$8,$9*
0 Add four rect primitives between the rounded corners*
20,1,$1+$1,$2,$3,$4,$5,0*
20,1,$1+$1,$4,$5,$6,$7,0*
20,1,$1+$1,$6,$7,$8,$9,0*
20,1,$1+$1,$8,$9,$2,$3,0*%
G04 Aperture macros list end*
%ADD10R,1.600000X1.600000*%
%ADD11O,1.600000X1.600000*%
%ADD12RoundRect,0.250000X1.300000X0.850000X-1.300000X0.850000X-1.300000X-0.850000X1.300000X-0.850000X0*%
%ADD13RoundRect,0.250000X0.500000X0.510000X-0.500000X0.510000X-0.500000X-0.510000X0.500000X-0.510000X0*%
%ADD14RoundRect,0.237500X-0.237500X0.250000X-0.237500X-0.250000X0.237500X-0.250000X0.237500X0.250000X0*%
%ADD15R,0.760000X1.600000*%
%ADD16RoundRect,0.250000X-0.600000X-0.725000X0.600000X-0.725000X0.600000X0.725000X-0.600000X0.725000X0*%
%ADD17O,1.700000X1.950000*%
%ADD18RoundRect,0.150000X-0.587500X-0.150000X0.587500X-0.150000X0.587500X0.150000X-0.587500X0.150000X0*%
%ADD19C,2.700000*%
%ADD20RoundRect,0.237500X0.250000X0.237500X-0.250000X0.237500X-0.250000X-0.237500X0.250000X-0.237500X0*%
%ADD21RoundRect,0.225000X0.225000X0.250000X-0.225000X0.250000X-0.225000X-0.250000X0.225000X-0.250000X0*%
%ADD22RoundRect,0.150000X-0.512500X-0.150000X0.512500X-0.150000X0.512500X0.150000X-0.512500X0.150000X0*%
%ADD23RoundRect,0.225000X-0.225000X-0.250000X0.225000X-0.250000X0.225000X0.250000X-0.225000X0.250000X0*%
%ADD24C,1.700000*%
%ADD25RoundRect,0.225000X0.250000X-0.225000X0.250000X0.225000X-0.250000X0.225000X-0.250000X-0.225000X0*%
%ADD26RoundRect,0.218750X-0.256250X0.218750X-0.256250X-0.218750X0.256250X-0.218750X0.256250X0.218750X0*%
%ADD27RoundRect,0.218750X0.218750X0.256250X-0.218750X0.256250X-0.218750X-0.256250X0.218750X-0.256250X0*%
%ADD28RoundRect,0.150000X0.150000X-0.587500X0.150000X0.587500X-0.150000X0.587500X-0.150000X-0.587500X0*%
%ADD29RoundRect,0.250000X0.787500X1.025000X-0.787500X1.025000X-0.787500X-1.025000X0.787500X-1.025000X0*%
%ADD30RoundRect,0.250000X0.725000X-0.600000X0.725000X0.600000X-0.725000X0.600000X-0.725000X-0.600000X0*%
%ADD31O,1.950000X1.700000*%
%ADD32RoundRect,0.150000X0.150000X-0.512500X0.150000X0.512500X-0.150000X0.512500X-0.150000X-0.512500X0*%
%ADD33RoundRect,0.150000X-0.150000X0.512500X-0.150000X-0.512500X0.150000X-0.512500X0.150000X0.512500X0*%
%ADD34RoundRect,0.200000X0.275000X-0.200000X0.275000X0.200000X-0.275000X0.200000X-0.275000X-0.200000X0*%
%ADD35RoundRect,0.150000X-0.150000X0.587500X-0.150000X-0.587500X0.150000X-0.587500X0.150000X0.587500X0*%
%ADD36R,1.700000X1.700000*%
%ADD37O,1.700000X1.700000*%
%ADD38RoundRect,0.200000X-0.200000X-0.275000X0.200000X-0.275000X0.200000X0.275000X-0.200000X0.275000X0*%
%ADD39R,0.450000X1.750000*%
G04 APERTURE END LIST*
D10*
%TO.C,SW1*%
X54900000Y2200000D03*
D11*
X54900000Y9820000D03*
%TD*%
D12*
%TO.C,D2*%
X44110000Y10100000D03*
D13*
X40890000Y10100000D03*
%TD*%
D14*
%TO.C,R11*%
X7062500Y17600000D03*
X7062500Y15775000D03*
%TD*%
D15*
%TO.C,SW2*%
X2985000Y21810000D03*
X1715000Y21810000D03*
X1715000Y14190000D03*
X2985000Y14190000D03*
%TD*%
D16*
%TO.C,J6*%
X28100000Y4700000D03*
D17*
X30600000Y4700000D03*
X33100000Y4700000D03*
X35600000Y4700000D03*
%TD*%
D14*
%TO.C,R17*%
X20168750Y14412500D03*
X20168750Y12587500D03*
%TD*%
D18*
%TO.C,Q1*%
X61612500Y13500000D03*
X61612500Y11600000D03*
X63487500Y12550000D03*
%TD*%
D19*
%TO.C,H4*%
X61500000Y3500000D03*
%TD*%
D20*
%TO.C,R1*%
X48702500Y9260000D03*
X46877500Y9260000D03*
%TD*%
D14*
%TO.C,R16*%
X20168750Y11012500D03*
X20168750Y9187500D03*
%TD*%
D21*
%TO.C,C2*%
X9675000Y48450000D03*
X8125000Y48450000D03*
%TD*%
D18*
%TO.C,Q3*%
X16543750Y14500000D03*
X16543750Y12600000D03*
X18418750Y13550000D03*
%TD*%
D19*
%TO.C,H2*%
X61500000Y52500000D03*
%TD*%
D21*
%TO.C,C9*%
X25225000Y9450000D03*
X23675000Y9450000D03*
%TD*%
D22*
%TO.C,U3*%
X1762500Y29550000D03*
X1762500Y28600000D03*
X1762500Y27650000D03*
X4037500Y27650000D03*
X4037500Y29550000D03*
%TD*%
D14*
%TO.C,R2*%
X58300000Y46612500D03*
X58300000Y44787500D03*
%TD*%
D23*
%TO.C,C3*%
X13600000Y17250000D03*
X15150000Y17250000D03*
%TD*%
D24*
%TO.C,Y1*%
X62100000Y24900000D03*
X59600000Y24900000D03*
X57100000Y24900000D03*
%TD*%
D25*
%TO.C,C6*%
X51300000Y28325000D03*
X51300000Y29875000D03*
%TD*%
D26*
%TO.C,D6*%
X8600000Y27375000D03*
X8600000Y25800000D03*
%TD*%
D27*
%TO.C,D1*%
X48687500Y10750000D03*
X47112500Y10750000D03*
%TD*%
D28*
%TO.C,U7*%
X6050000Y43562500D03*
X7950000Y43562500D03*
X7000000Y45437500D03*
%TD*%
D29*
%TO.C,C4*%
X44612500Y14100000D03*
X38387500Y14100000D03*
%TD*%
D14*
%TO.C,R9*%
X59837500Y13412500D03*
X59837500Y11587500D03*
%TD*%
D30*
%TO.C,J4*%
X61200000Y17250000D03*
D31*
X61200000Y19750000D03*
%TD*%
D32*
%TO.C,U8*%
X2400000Y37300000D03*
X3350000Y37300000D03*
X4300000Y37300000D03*
X4300000Y39575000D03*
X2400000Y39575000D03*
%TD*%
D14*
%TO.C,R3*%
X59800000Y46612500D03*
X59800000Y44787500D03*
%TD*%
D16*
%TO.C,J1*%
X41600000Y4700000D03*
D17*
X44100000Y4700000D03*
X46600000Y4700000D03*
X49100000Y4700000D03*
%TD*%
D18*
%TO.C,Q4*%
X30100000Y11050000D03*
X30100000Y9150000D03*
X31975000Y10100000D03*
%TD*%
D20*
%TO.C,R8*%
X25212500Y10950000D03*
X23387500Y10950000D03*
%TD*%
D16*
%TO.C,J3*%
X14600000Y4700000D03*
D17*
X17100000Y4700000D03*
X19600000Y4700000D03*
X22100000Y4700000D03*
%TD*%
D14*
%TO.C,R14*%
X14818750Y14412500D03*
X14818750Y12587500D03*
%TD*%
%TO.C,R12*%
X7100000Y30712500D03*
X7100000Y28887500D03*
%TD*%
D22*
%TO.C,U2*%
X1762500Y25950000D03*
X1762500Y25000000D03*
X1762500Y24050000D03*
X4037500Y24050000D03*
X4037500Y25950000D03*
%TD*%
D14*
%TO.C,R18*%
X28387500Y14412500D03*
X28387500Y12587500D03*
%TD*%
D33*
%TO.C,U5*%
X11400000Y45450000D03*
X10450000Y45450000D03*
X9500000Y45450000D03*
X9500000Y43175000D03*
X11400000Y43175000D03*
%TD*%
D20*
%TO.C,R7*%
X11512500Y10750000D03*
X9687500Y10750000D03*
%TD*%
D14*
%TO.C,R21*%
X33687500Y14412500D03*
X33687500Y12587500D03*
%TD*%
%TO.C,R15*%
X14818750Y11012500D03*
X14818750Y9187500D03*
%TD*%
D18*
%TO.C,Q5*%
X30100000Y14500000D03*
X30100000Y12600000D03*
X31975000Y13550000D03*
%TD*%
D14*
%TO.C,R10*%
X7062500Y20900000D03*
X7062500Y19075000D03*
%TD*%
D26*
%TO.C,D3*%
X8662500Y20875000D03*
X8662500Y19300000D03*
%TD*%
D23*
%TO.C,C7*%
X53325000Y38400000D03*
X54875000Y38400000D03*
%TD*%
D21*
%TO.C,C8*%
X11525000Y9250000D03*
X9975000Y9250000D03*
%TD*%
D34*
%TO.C,R6*%
X58337500Y11850000D03*
X58337500Y13500000D03*
%TD*%
D14*
%TO.C,R4*%
X61300000Y46612500D03*
X61300000Y44787500D03*
%TD*%
D33*
%TO.C,U9*%
X4550000Y45500000D03*
X3600000Y45500000D03*
X2650000Y45500000D03*
X2650000Y43225000D03*
X4550000Y43225000D03*
%TD*%
D14*
%TO.C,R19*%
X28387500Y10962500D03*
X28387500Y9137500D03*
%TD*%
D18*
%TO.C,Q2*%
X16543750Y11100000D03*
X16543750Y9200000D03*
X18418750Y10150000D03*
%TD*%
D26*
%TO.C,D5*%
X8600000Y30687500D03*
X8600000Y29112500D03*
%TD*%
D19*
%TO.C,H1*%
X3500000Y52500000D03*
%TD*%
D32*
%TO.C,U4*%
X9300000Y37300000D03*
X10250000Y37300000D03*
X11200000Y37300000D03*
X11200000Y39575000D03*
X9300000Y39575000D03*
%TD*%
D35*
%TO.C,U6*%
X7750000Y39243750D03*
X5850000Y39243750D03*
X6800000Y37368750D03*
%TD*%
D36*
%TO.C,J5*%
X50850000Y17250000D03*
D37*
X50850000Y19790000D03*
X50850000Y22330000D03*
X50850000Y24870000D03*
%TD*%
D38*
%TO.C,R5*%
X54075000Y11800000D03*
X55725000Y11800000D03*
%TD*%
D21*
%TO.C,C5*%
X58875000Y38400000D03*
X57325000Y38400000D03*
%TD*%
D26*
%TO.C,D4*%
X8662500Y17575000D03*
X8662500Y16000000D03*
%TD*%
D14*
%TO.C,R13*%
X7100000Y27400000D03*
X7100000Y25575000D03*
%TD*%
D23*
%TO.C,C1*%
X3225000Y48450000D03*
X4775000Y48450000D03*
%TD*%
D39*
%TO.C,U1*%
X53375000Y28800000D03*
X54025000Y28800000D03*
X54675000Y28800000D03*
X55325000Y28800000D03*
X55975000Y28800000D03*
X56625000Y28800000D03*
X57275000Y28800000D03*
X57925000Y28800000D03*
X58575000Y28800000D03*
X59225000Y28800000D03*
X59875000Y28800000D03*
X60525000Y28800000D03*
X61175000Y28800000D03*
X61825000Y28800000D03*
X61825000Y36000000D03*
X61175000Y36000000D03*
X60525000Y36000000D03*
X59875000Y36000000D03*
X59225000Y36000000D03*
X58575000Y36000000D03*
X57925000Y36000000D03*
X57275000Y36000000D03*
X56625000Y36000000D03*
X55975000Y36000000D03*
X55325000Y36000000D03*
X54675000Y36000000D03*
X54025000Y36000000D03*
X53375000Y36000000D03*
%TD*%
D19*
%TO.C,H3*%
X3500000Y3500000D03*
%TD*%
D14*
%TO.C,R20*%
X33687500Y10962500D03*
X33687500Y9137500D03*
%TD*%
D36*
%TO.C,J2*%
X8400000Y51210000D03*
D37*
X8400000Y53750000D03*
X10940000Y51210000D03*
X10940000Y53750000D03*
X13480000Y51210000D03*
X13480000Y53750000D03*
X16020000Y51210000D03*
X16020000Y53750000D03*
X18560000Y51210000D03*
X18560000Y53750000D03*
X21100000Y51210000D03*
X21100000Y53750000D03*
X23640000Y51210000D03*
X23640000Y53750000D03*
X26180000Y51210000D03*
X26180000Y53750000D03*
X28720000Y51210000D03*
X28720000Y53750000D03*
X31260000Y51210000D03*
X31260000Y53750000D03*
X33800000Y51210000D03*
X33800000Y53750000D03*
X36340000Y51210000D03*
X36340000Y53750000D03*
X38880000Y51210000D03*
X38880000Y53750000D03*
X41420000Y51210000D03*
X41420000Y53750000D03*
X43960000Y51210000D03*
X43960000Y53750000D03*
X46500000Y51210000D03*
X46500000Y53750000D03*
X49040000Y51210000D03*
X49040000Y53750000D03*
X51580000Y51210000D03*
X51580000Y53750000D03*
X54120000Y51210000D03*
X54120000Y53750000D03*
X56660000Y51210000D03*
X56660000Y53750000D03*
%TD*%
M02*
