%TF.GenerationSoftware,KiCad,Pcbnew,7.0.9*%
%TF.CreationDate,2024-12-01T07:10:06+09:00*%
%TF.ProjectId,raspi_comm_if_hat,72617370-695f-4636-9f6d-6d5f69665f68,rev?*%
%TF.SameCoordinates,PX5f5e100PY68e7780*%
%TF.FileFunction,Drillmap*%
%TF.FilePolarity,Positive*%
%FSLAX45Y45*%
G04 Gerber Fmt 4.5, Leading zero omitted, Abs format (unit mm)*
G04 Created by KiCad (PCBNEW 7.0.9) date 2024-12-01 07:10:06*
%MOMM*%
%LPD*%
G01*
G04 APERTURE LIST*
%ADD10C,0.100000*%
%ADD11C,0.200000*%
%ADD12C,0.270000*%
G04 APERTURE END LIST*
D10*
X4650000Y3250000D02*
G75*
G03*
X4650000Y3250000I-1350000J0D01*
G01*
X0Y5300000D02*
X0Y300000D01*
X2250000Y2050000D02*
G75*
G03*
X2250000Y2050000I-150000J0D01*
G01*
X6200000Y0D02*
G75*
G03*
X6500000Y300000I0J300000D01*
G01*
X6500000Y5300000D02*
X6500000Y300000D01*
X0Y300000D02*
G75*
G03*
X300000Y0I300000J0D01*
G01*
X300000Y5600000D02*
G75*
G03*
X0Y5300000I0J-300000D01*
G01*
X300000Y5600000D02*
X6200000Y5600000D01*
X4650000Y4450000D02*
G75*
G03*
X4650000Y4450000I-150000J0D01*
G01*
X2250000Y4450000D02*
G75*
G03*
X2250000Y4450000I-150000J0D01*
G01*
X4650000Y2050000D02*
G75*
G03*
X4650000Y2050000I-150000J0D01*
G01*
X300000Y0D02*
X6200000Y0D01*
X6500000Y5300000D02*
G75*
G03*
X6200000Y5600000I-300000J0D01*
G01*
D11*
D10*
X25000Y4990000D02*
X65000Y4950000D01*
X65000Y4990000D02*
X25000Y4950000D01*
X25000Y3185000D02*
X65000Y3145000D01*
X65000Y3185000D02*
X25000Y3145000D01*
X25000Y2815000D02*
X65000Y2775000D01*
X65000Y2815000D02*
X25000Y2775000D01*
X25000Y2025000D02*
X65000Y1985000D01*
X65000Y2025000D02*
X25000Y1985000D01*
X30000Y1575000D02*
X70000Y1535000D01*
X70000Y1575000D02*
X30000Y1535000D01*
X30000Y1165000D02*
X70000Y1125000D01*
X70000Y1165000D02*
X30000Y1125000D01*
X35000Y790000D02*
X75000Y750000D01*
X75000Y790000D02*
X35000Y750000D01*
X40000Y2425000D02*
X80000Y2385000D01*
X80000Y2425000D02*
X40000Y2385000D01*
X85000Y2710000D02*
X125000Y2670000D01*
X125000Y2710000D02*
X85000Y2670000D01*
X139502Y4865498D02*
X179502Y4825498D01*
X179502Y4865498D02*
X139502Y4825498D01*
X186875Y4164325D02*
X226875Y4124325D01*
X226875Y4164325D02*
X186875Y4124325D01*
X190000Y3450000D02*
X230000Y3410000D01*
X230000Y3450000D02*
X190000Y3410000D01*
X190000Y3225000D02*
X230000Y3185000D01*
X230000Y3225000D02*
X190000Y3185000D01*
X195000Y3064950D02*
X235000Y3024950D01*
X235000Y3064950D02*
X195000Y3024950D01*
X215000Y4975000D02*
X255000Y4935000D01*
X255000Y4975000D02*
X215000Y4935000D01*
X252450Y4675000D02*
X292450Y4635000D01*
X292450Y4675000D02*
X252450Y4635000D01*
X275000Y3372450D02*
X315000Y3332450D01*
X315000Y3372450D02*
X275000Y3332450D01*
X275000Y3137450D02*
X315000Y3097450D01*
X315000Y3137450D02*
X275000Y3097450D01*
X315000Y3873750D02*
X355000Y3833750D01*
X355000Y3873750D02*
X315000Y3833750D01*
X330000Y4440000D02*
X370000Y4400000D01*
X370000Y4440000D02*
X330000Y4400000D01*
X335000Y3590000D02*
X375000Y3550000D01*
X375000Y3590000D02*
X335000Y3550000D01*
X355000Y4167520D02*
X395000Y4127520D01*
X395000Y4167520D02*
X355000Y4127520D01*
X380000Y2870000D02*
X420000Y2830000D01*
X420000Y2870000D02*
X380000Y2830000D01*
X385000Y1900000D02*
X425000Y1860000D01*
X425000Y1900000D02*
X385000Y1860000D01*
X385000Y1700000D02*
X425000Y1660000D01*
X425000Y1700000D02*
X385000Y1660000D01*
X405000Y1490000D02*
X445000Y1450000D01*
X445000Y1490000D02*
X405000Y1450000D01*
X410050Y2335000D02*
X450050Y2295000D01*
X450050Y2335000D02*
X410050Y2295000D01*
X460000Y780000D02*
X500000Y740000D01*
X500000Y780000D02*
X460000Y740000D01*
X470000Y1165000D02*
X510000Y1125000D01*
X510000Y1165000D02*
X470000Y1125000D01*
X510000Y4242470D02*
X550000Y4202470D01*
X550000Y4242470D02*
X510000Y4202470D01*
X510000Y4092570D02*
X550000Y4052570D01*
X550000Y4092570D02*
X510000Y4052570D01*
X560000Y1395000D02*
X600000Y1355000D01*
X600000Y1395000D02*
X560000Y1355000D01*
X565000Y2130000D02*
X605000Y2090000D01*
X605000Y2130000D02*
X565000Y2090000D01*
X566225Y3061225D02*
X606225Y3021225D01*
X606225Y3061225D02*
X566225Y3021225D01*
X570000Y2600000D02*
X610000Y2560000D01*
X610000Y2600000D02*
X570000Y2560000D01*
X620000Y4865000D02*
X660000Y4825000D01*
X660000Y4865000D02*
X620000Y4825000D01*
X660000Y3590000D02*
X700000Y3550000D01*
X700000Y3590000D02*
X660000Y3550000D01*
X665000Y3906875D02*
X705000Y3866875D01*
X705000Y3906875D02*
X665000Y3866875D01*
X675000Y5575000D02*
X715000Y5535000D01*
X715000Y5575000D02*
X675000Y5535000D01*
X680000Y4385000D02*
X720000Y4345000D01*
X720000Y4385000D02*
X680000Y4345000D01*
X685000Y1460000D02*
X725000Y1420000D01*
X725000Y1460000D02*
X685000Y1420000D01*
X690000Y2485000D02*
X730000Y2445000D01*
X730000Y2485000D02*
X690000Y2445000D01*
X690000Y2385050D02*
X730000Y2345050D01*
X730000Y2385050D02*
X690000Y2345050D01*
X690000Y2250000D02*
X730000Y2210000D01*
X730000Y2250000D02*
X690000Y2210000D01*
X734285Y2892594D02*
X774285Y2852594D01*
X774285Y2892594D02*
X734285Y2852594D01*
X743145Y2007639D02*
X783145Y1967639D01*
X783145Y2007639D02*
X743145Y1967639D01*
X840000Y2370000D02*
X880000Y2330000D01*
X880000Y2370000D02*
X840000Y2330000D01*
X927550Y3260000D02*
X967550Y3220000D01*
X967550Y3260000D02*
X927550Y3220000D01*
X930000Y940000D02*
X970000Y900000D01*
X970000Y940000D02*
X930000Y900000D01*
X940000Y3470000D02*
X980000Y3430000D01*
X980000Y3470000D02*
X940000Y3430000D01*
X945000Y1260000D02*
X985000Y1220000D01*
X985000Y1260000D02*
X945000Y1220000D01*
X990000Y750000D02*
X1030000Y710000D01*
X1030000Y750000D02*
X990000Y710000D01*
X1000000Y4170000D02*
X1040000Y4130000D01*
X1040000Y4170000D02*
X1000000Y4130000D01*
X1005000Y3883750D02*
X1045000Y3843750D01*
X1045000Y3883750D02*
X1005000Y3843750D01*
X1020000Y90000D02*
X1060000Y50000D01*
X1060000Y90000D02*
X1020000Y50000D01*
X1025000Y4435000D02*
X1065000Y4395000D01*
X1065000Y4435000D02*
X1025000Y4395000D01*
X1130000Y4865000D02*
X1170000Y4825000D01*
X1170000Y4865000D02*
X1130000Y4825000D01*
X1130000Y4705000D02*
X1170000Y4665000D01*
X1170000Y4705000D02*
X1130000Y4665000D01*
X1175000Y5575000D02*
X1215000Y5535000D01*
X1215000Y5575000D02*
X1175000Y5535000D01*
X1332450Y4705000D02*
X1372450Y4665000D01*
X1372450Y4705000D02*
X1332450Y4665000D01*
X1332450Y4530000D02*
X1372450Y4490000D01*
X1372450Y4530000D02*
X1332450Y4490000D01*
X1332450Y1580000D02*
X1372450Y1540000D01*
X1372450Y1580000D02*
X1332450Y1540000D01*
X1335000Y1250000D02*
X1375000Y1210000D01*
X1375000Y1250000D02*
X1335000Y1210000D01*
X1350000Y675000D02*
X1390000Y635000D01*
X1390000Y675000D02*
X1350000Y635000D01*
X1425000Y1664950D02*
X1465000Y1624950D01*
X1465000Y1664950D02*
X1425000Y1624950D01*
X1675000Y5575000D02*
X1715000Y5535000D01*
X1715000Y5575000D02*
X1675000Y5535000D01*
X1715000Y4170000D02*
X1755000Y4130000D01*
X1755000Y4170000D02*
X1715000Y4130000D01*
X1800000Y1480000D02*
X1840000Y1440000D01*
X1840000Y1480000D02*
X1800000Y1440000D01*
X1870000Y4670000D02*
X1910000Y4630000D01*
X1910000Y4670000D02*
X1870000Y4630000D01*
X1870000Y4170000D02*
X1910000Y4130000D01*
X1910000Y4170000D02*
X1870000Y4130000D01*
X1870000Y3670000D02*
X1910000Y3630000D01*
X1910000Y3670000D02*
X1870000Y3630000D01*
X1870000Y3170000D02*
X1910000Y3130000D01*
X1910000Y3170000D02*
X1870000Y3130000D01*
X1870000Y2670000D02*
X1910000Y2630000D01*
X1910000Y2670000D02*
X1870000Y2630000D01*
X1870000Y2170000D02*
X1910000Y2130000D01*
X1910000Y2170000D02*
X1870000Y2130000D01*
X1915000Y720000D02*
X1955000Y680000D01*
X1955000Y720000D02*
X1915000Y680000D01*
X1995000Y4925000D02*
X2035000Y4885000D01*
X2035000Y4925000D02*
X1995000Y4885000D01*
X2069325Y715000D02*
X2109325Y675000D01*
X2109325Y715000D02*
X2069325Y675000D01*
X2117550Y1015000D02*
X2157550Y975000D01*
X2157550Y1015000D02*
X2117550Y975000D01*
X2121542Y1256542D02*
X2161542Y1216542D01*
X2161542Y1256542D02*
X2121542Y1216542D01*
X2145000Y70000D02*
X2185000Y30000D01*
X2185000Y70000D02*
X2145000Y30000D01*
X2175000Y5575000D02*
X2215000Y5535000D01*
X2215000Y5575000D02*
X2175000Y5535000D01*
X2250000Y1240000D02*
X2290000Y1200000D01*
X2290000Y1240000D02*
X2250000Y1200000D01*
X2261230Y1636230D02*
X2301230Y1596230D01*
X2301230Y1636230D02*
X2261230Y1596230D01*
X2290000Y1955000D02*
X2330000Y1915000D01*
X2330000Y1955000D02*
X2290000Y1915000D01*
X2295000Y720000D02*
X2335000Y680000D01*
X2335000Y720000D02*
X2295000Y680000D01*
X2370000Y4670000D02*
X2410000Y4630000D01*
X2410000Y4670000D02*
X2370000Y4630000D01*
X2370000Y2170000D02*
X2410000Y2130000D01*
X2410000Y2170000D02*
X2370000Y2130000D01*
X2390000Y4925000D02*
X2430000Y4885000D01*
X2430000Y4925000D02*
X2390000Y4885000D01*
X2490000Y380000D02*
X2530000Y340000D01*
X2530000Y380000D02*
X2490000Y340000D01*
X2625000Y1640000D02*
X2665000Y1600000D01*
X2665000Y1640000D02*
X2625000Y1600000D01*
X2660000Y710000D02*
X2700000Y670000D01*
X2700000Y710000D02*
X2660000Y670000D01*
X2675000Y5575000D02*
X2715000Y5535000D01*
X2715000Y5575000D02*
X2675000Y5535000D01*
X2703750Y1190000D02*
X2743750Y1150000D01*
X2743750Y1190000D02*
X2703750Y1150000D01*
X2708750Y1351200D02*
X2748750Y1311200D01*
X2748750Y1351200D02*
X2708750Y1311200D01*
X2720000Y70000D02*
X2760000Y30000D01*
X2760000Y70000D02*
X2720000Y30000D01*
X2810000Y1950000D02*
X2850000Y1910000D01*
X2850000Y1950000D02*
X2810000Y1910000D01*
X2855000Y4925000D02*
X2895000Y4885000D01*
X2895000Y4925000D02*
X2855000Y4885000D01*
X2870000Y4670000D02*
X2910000Y4630000D01*
X2910000Y4670000D02*
X2870000Y4630000D01*
X3175000Y5575000D02*
X3215000Y5535000D01*
X3215000Y5575000D02*
X3175000Y5535000D01*
X3180000Y4820000D02*
X3220000Y4780000D01*
X3220000Y4820000D02*
X3180000Y4780000D01*
X3185000Y770000D02*
X3225000Y730000D01*
X3225000Y770000D02*
X3185000Y730000D01*
X3340000Y1640000D02*
X3380000Y1600000D01*
X3380000Y1640000D02*
X3340000Y1600000D01*
X3362450Y770000D02*
X3402450Y730000D01*
X3402450Y770000D02*
X3362450Y730000D01*
X3462520Y1351200D02*
X3502520Y1311200D01*
X3502520Y1351200D02*
X3462520Y1311200D01*
X3462520Y1206300D02*
X3502520Y1166300D01*
X3502520Y1206300D02*
X3462520Y1166300D01*
X3655000Y1205000D02*
X3695000Y1165000D01*
X3695000Y1205000D02*
X3655000Y1165000D01*
X3655000Y890000D02*
X3695000Y850000D01*
X3695000Y890000D02*
X3655000Y850000D01*
X3665000Y70000D02*
X3705000Y30000D01*
X3705000Y70000D02*
X3665000Y30000D01*
X3675000Y5575000D02*
X3715000Y5535000D01*
X3715000Y5575000D02*
X3675000Y5535000D01*
X3730000Y1945000D02*
X3770000Y1905000D01*
X3770000Y1945000D02*
X3730000Y1905000D01*
X3810000Y4575000D02*
X3850000Y4535000D01*
X3850000Y4575000D02*
X3810000Y4535000D01*
X3840000Y490000D02*
X3880000Y450000D01*
X3880000Y490000D02*
X3840000Y450000D01*
X4010000Y1430000D02*
X4050000Y1390000D01*
X4050000Y1430000D02*
X4010000Y1390000D01*
X4115000Y1640000D02*
X4155000Y1600000D01*
X4155000Y1640000D02*
X4115000Y1600000D01*
X4175000Y5575000D02*
X4215000Y5535000D01*
X4215000Y5575000D02*
X4175000Y5535000D01*
X4205000Y740000D02*
X4245000Y700000D01*
X4245000Y740000D02*
X4205000Y700000D01*
X4280000Y2275000D02*
X4320000Y2235000D01*
X4320000Y2275000D02*
X4280000Y2235000D01*
X4285000Y4285000D02*
X4325000Y4245000D01*
X4325000Y4285000D02*
X4285000Y4245000D01*
X4285000Y1950000D02*
X4325000Y1910000D01*
X4325000Y1950000D02*
X4285000Y1910000D01*
X4290000Y65000D02*
X4330000Y25000D01*
X4330000Y65000D02*
X4290000Y25000D01*
X4315000Y1230000D02*
X4355000Y1190000D01*
X4355000Y1230000D02*
X4315000Y1190000D01*
X4525000Y730000D02*
X4565000Y690000D01*
X4565000Y730000D02*
X4525000Y690000D01*
X4595000Y1230000D02*
X4635000Y1190000D01*
X4635000Y1230000D02*
X4595000Y1190000D01*
X4665000Y855000D02*
X4705000Y815000D01*
X4705000Y855000D02*
X4665000Y815000D01*
X4675000Y5575000D02*
X4715000Y5535000D01*
X4715000Y5575000D02*
X4675000Y5535000D01*
X4700000Y1540000D02*
X4740000Y1500000D01*
X4740000Y1540000D02*
X4700000Y1500000D01*
X4710000Y4580000D02*
X4750000Y4540000D01*
X4750000Y4580000D02*
X4710000Y4540000D01*
X4710000Y4100000D02*
X4750000Y4060000D01*
X4750000Y4100000D02*
X4710000Y4060000D01*
X4710000Y3600000D02*
X4750000Y3560000D01*
X4750000Y3600000D02*
X4710000Y3560000D01*
X4710000Y3100000D02*
X4750000Y3060000D01*
X4750000Y3100000D02*
X4710000Y3060000D01*
X4710000Y2600000D02*
X4750000Y2560000D01*
X4750000Y2600000D02*
X4710000Y2560000D01*
X4710000Y2100000D02*
X4750000Y2060000D01*
X4750000Y2100000D02*
X4710000Y2060000D01*
X4869931Y1515069D02*
X4909931Y1475069D01*
X4909931Y1515069D02*
X4869931Y1475069D01*
X4910000Y3860000D02*
X4950000Y3820000D01*
X4950000Y3860000D02*
X4910000Y3820000D01*
X4950000Y4690000D02*
X4990000Y4650000D01*
X4990000Y4690000D02*
X4950000Y4650000D01*
X4965000Y2880000D02*
X5005000Y2840000D01*
X5005000Y2880000D02*
X4965000Y2840000D01*
X4970000Y725000D02*
X5010000Y685000D01*
X5010000Y725000D02*
X4970000Y685000D01*
X4990000Y2710000D02*
X5030000Y2670000D01*
X5030000Y2710000D02*
X4990000Y2670000D01*
X4992569Y1397431D02*
X5032569Y1357431D01*
X5032569Y1397431D02*
X4992569Y1357431D01*
X4995000Y1225000D02*
X5035000Y1185000D01*
X5035000Y1225000D02*
X4995000Y1185000D01*
X5080000Y3860000D02*
X5120000Y3820000D01*
X5120000Y3860000D02*
X5080000Y3820000D01*
X5100000Y4585000D02*
X5140000Y4545000D01*
X5140000Y4585000D02*
X5100000Y4545000D01*
X5105000Y3145000D02*
X5145000Y3105000D01*
X5145000Y3145000D02*
X5105000Y3105000D01*
X5115000Y3715000D02*
X5155000Y3675000D01*
X5155000Y3715000D02*
X5115000Y3675000D01*
X5115000Y3385000D02*
X5155000Y3345000D01*
X5155000Y3385000D02*
X5115000Y3345000D01*
X5175000Y5575000D02*
X5215000Y5535000D01*
X5215000Y5575000D02*
X5175000Y5535000D01*
X5215000Y1624950D02*
X5255000Y1584950D01*
X5255000Y1624950D02*
X5215000Y1584950D01*
X5215000Y1455050D02*
X5255000Y1415050D01*
X5255000Y1455050D02*
X5215000Y1415050D01*
X5225000Y795000D02*
X5265000Y755000D01*
X5265000Y795000D02*
X5225000Y755000D01*
X5230000Y75000D02*
X5270000Y35000D01*
X5270000Y75000D02*
X5230000Y35000D01*
X5235000Y4270000D02*
X5275000Y4230000D01*
X5275000Y4270000D02*
X5235000Y4230000D01*
X5310000Y415000D02*
X5350000Y375000D01*
X5350000Y415000D02*
X5310000Y375000D01*
X5330000Y2705000D02*
X5370000Y2665000D01*
X5370000Y2705000D02*
X5330000Y2665000D01*
X5330000Y2400000D02*
X5370000Y2360000D01*
X5370000Y2400000D02*
X5330000Y2360000D01*
X5330000Y2090000D02*
X5370000Y2050000D01*
X5370000Y2090000D02*
X5330000Y2050000D01*
X5335000Y1680000D02*
X5375000Y1640000D01*
X5375000Y1680000D02*
X5335000Y1640000D01*
X5340000Y3100000D02*
X5380000Y3060000D01*
X5380000Y3100000D02*
X5340000Y3060000D01*
X5370000Y850000D02*
X5410000Y810000D01*
X5410000Y850000D02*
X5370000Y810000D01*
X5375050Y1540000D02*
X5415050Y1500000D01*
X5415050Y1540000D02*
X5375050Y1500000D01*
X5485000Y1315000D02*
X5525000Y1275000D01*
X5525000Y1315000D02*
X5485000Y1275000D01*
X5525000Y4945000D02*
X5565000Y4905000D01*
X5565000Y4945000D02*
X5525000Y4905000D01*
X5535000Y690000D02*
X5575000Y650000D01*
X5575000Y690000D02*
X5535000Y650000D01*
X5540000Y3060000D02*
X5580000Y3020000D01*
X5580000Y3060000D02*
X5540000Y3020000D01*
X5545000Y3955000D02*
X5585000Y3915000D01*
X5585000Y3955000D02*
X5545000Y3915000D01*
X5555000Y4135000D02*
X5595000Y4095000D01*
X5595000Y4135000D02*
X5555000Y4095000D01*
X5584950Y1540000D02*
X5624950Y1500000D01*
X5624950Y1540000D02*
X5584950Y1500000D01*
X5605000Y1730000D02*
X5645000Y1690000D01*
X5645000Y1730000D02*
X5605000Y1690000D01*
X5610000Y2295000D02*
X5650000Y2255000D01*
X5650000Y2295000D02*
X5610000Y2255000D01*
X5610000Y2050000D02*
X5650000Y2010000D01*
X5650000Y2050000D02*
X5610000Y2010000D01*
X5635000Y1355000D02*
X5675000Y1315000D01*
X5675000Y1355000D02*
X5635000Y1315000D01*
X5650000Y3950000D02*
X5690000Y3910000D01*
X5690000Y3950000D02*
X5650000Y3910000D01*
X5675000Y5575000D02*
X5715000Y5535000D01*
X5715000Y5575000D02*
X5675000Y5535000D01*
X5701230Y4691230D02*
X5741230Y4651230D01*
X5741230Y4691230D02*
X5701230Y4651230D01*
X5725000Y995000D02*
X5765000Y955000D01*
X5765000Y995000D02*
X5725000Y955000D01*
X5742450Y855000D02*
X5782450Y815000D01*
X5782450Y855000D02*
X5742450Y815000D01*
X5790000Y70000D02*
X5830000Y30000D01*
X5830000Y70000D02*
X5790000Y30000D01*
X5825000Y1545000D02*
X5865000Y1505000D01*
X5865000Y1545000D02*
X5825000Y1505000D01*
X5830000Y3385000D02*
X5870000Y3345000D01*
X5870000Y3385000D02*
X5830000Y3345000D01*
X5840000Y3060000D02*
X5880000Y3020000D01*
X5880000Y3060000D02*
X5840000Y3020000D01*
X5960000Y1060000D02*
X6000000Y1020000D01*
X6000000Y1060000D02*
X5960000Y1020000D01*
X5960000Y770000D02*
X6000000Y730000D01*
X6000000Y770000D02*
X5960000Y730000D01*
X5970000Y4380000D02*
X6010000Y4340000D01*
X6010000Y4380000D02*
X5970000Y4340000D01*
X5974549Y3832212D02*
X6014549Y3792212D01*
X6014549Y3832212D02*
X5974549Y3792212D01*
X6010000Y2295000D02*
X6050000Y2255000D01*
X6050000Y2295000D02*
X6010000Y2255000D01*
X6053273Y3770628D02*
X6093273Y3730628D01*
X6093273Y3770628D02*
X6053273Y3730628D01*
X6053770Y4299763D02*
X6093770Y4259763D01*
X6093770Y4299763D02*
X6053770Y4259763D01*
X6135000Y1270000D02*
X6175000Y1230000D01*
X6175000Y1270000D02*
X6135000Y1230000D01*
X6155000Y1525000D02*
X6195000Y1485000D01*
X6195000Y1525000D02*
X6155000Y1485000D01*
X6230000Y3105000D02*
X6270000Y3065000D01*
X6270000Y3105000D02*
X6230000Y3065000D01*
X6235000Y3375000D02*
X6275000Y3335000D01*
X6275000Y3375000D02*
X6235000Y3335000D01*
X6395000Y4460000D02*
X6435000Y4420000D01*
X6435000Y4460000D02*
X6395000Y4420000D01*
X6400000Y4930000D02*
X6440000Y4890000D01*
X6440000Y4930000D02*
X6400000Y4890000D01*
X6410000Y3975000D02*
X6450000Y3935000D01*
X6450000Y3975000D02*
X6410000Y3935000D01*
X6430000Y1125000D02*
X6470000Y1085000D01*
X6470000Y1125000D02*
X6430000Y1085000D01*
X6435000Y2400000D02*
X6475000Y2360000D01*
X6475000Y2400000D02*
X6435000Y2360000D01*
X6435000Y2010000D02*
X6475000Y1970000D01*
X6475000Y2010000D02*
X6435000Y1970000D01*
X6435000Y1530000D02*
X6475000Y1490000D01*
X6475000Y1530000D02*
X6435000Y1490000D01*
X6435000Y780000D02*
X6475000Y740000D01*
X6475000Y780000D02*
X6435000Y740000D01*
X6440000Y2835000D02*
X6480000Y2795000D01*
X6480000Y2835000D02*
X6440000Y2795000D01*
X6440000Y2625000D02*
X6480000Y2585000D01*
X6480000Y2625000D02*
X6440000Y2585000D01*
X5530000Y982000D02*
G75*
G03*
X5530000Y982000I-40000J0D01*
G01*
X5530000Y220000D02*
G75*
G03*
X5530000Y220000I-40000J0D01*
G01*
X1460000Y517500D02*
X1460000Y422500D01*
X1412500Y470000D02*
X1507500Y470000D01*
X1710000Y517500D02*
X1710000Y422500D01*
X1662500Y470000D02*
X1757500Y470000D01*
X1960000Y517500D02*
X1960000Y422500D01*
X1912500Y470000D02*
X2007500Y470000D01*
X2210000Y517500D02*
X2210000Y422500D01*
X2162500Y470000D02*
X2257500Y470000D01*
X2810000Y517500D02*
X2810000Y422500D01*
X2762500Y470000D02*
X2857500Y470000D01*
X3060000Y517500D02*
X3060000Y422500D01*
X3012500Y470000D02*
X3107500Y470000D01*
X3310000Y517500D02*
X3310000Y422500D01*
X3262500Y470000D02*
X3357500Y470000D01*
X3560000Y517500D02*
X3560000Y422500D01*
X3512500Y470000D02*
X3607500Y470000D01*
X4160000Y517500D02*
X4160000Y422500D01*
X4112500Y470000D02*
X4207500Y470000D01*
X4410000Y517500D02*
X4410000Y422500D01*
X4362500Y470000D02*
X4457500Y470000D01*
X4660000Y517500D02*
X4660000Y422500D01*
X4612500Y470000D02*
X4707500Y470000D01*
X4910000Y517500D02*
X4910000Y422500D01*
X4862500Y470000D02*
X4957500Y470000D01*
X6120000Y2022500D02*
X6120000Y1927500D01*
X6072500Y1975000D02*
X6167500Y1975000D01*
X6120000Y1772500D02*
X6120000Y1677500D01*
X6072500Y1725000D02*
X6167500Y1725000D01*
X875356Y5339644D02*
X875356Y5410356D01*
X804644Y5410356D01*
X804644Y5339644D01*
X875356Y5339644D01*
X875356Y5085644D02*
X875356Y5156356D01*
X804644Y5156356D01*
X804644Y5085644D01*
X875356Y5085644D01*
X1129356Y5339644D02*
X1129356Y5410356D01*
X1058644Y5410356D01*
X1058644Y5339644D01*
X1129356Y5339644D01*
X1129356Y5085644D02*
X1129356Y5156356D01*
X1058644Y5156356D01*
X1058644Y5085644D01*
X1129356Y5085644D01*
X1383356Y5339644D02*
X1383356Y5410356D01*
X1312644Y5410356D01*
X1312644Y5339644D01*
X1383356Y5339644D01*
X1383356Y5085644D02*
X1383356Y5156356D01*
X1312644Y5156356D01*
X1312644Y5085644D01*
X1383356Y5085644D01*
X1637356Y5339644D02*
X1637356Y5410356D01*
X1566644Y5410356D01*
X1566644Y5339644D01*
X1637356Y5339644D01*
X1637356Y5085644D02*
X1637356Y5156356D01*
X1566644Y5156356D01*
X1566644Y5085644D01*
X1637356Y5085644D01*
X1891356Y5339644D02*
X1891356Y5410356D01*
X1820644Y5410356D01*
X1820644Y5339644D01*
X1891356Y5339644D01*
X1891356Y5085644D02*
X1891356Y5156356D01*
X1820644Y5156356D01*
X1820644Y5085644D01*
X1891356Y5085644D01*
X2145356Y5339644D02*
X2145356Y5410356D01*
X2074644Y5410356D01*
X2074644Y5339644D01*
X2145356Y5339644D01*
X2145356Y5085644D02*
X2145356Y5156356D01*
X2074644Y5156356D01*
X2074644Y5085644D01*
X2145356Y5085644D01*
X2399356Y5339644D02*
X2399356Y5410356D01*
X2328644Y5410356D01*
X2328644Y5339644D01*
X2399356Y5339644D01*
X2399356Y5085644D02*
X2399356Y5156356D01*
X2328644Y5156356D01*
X2328644Y5085644D01*
X2399356Y5085644D01*
X2653356Y5339644D02*
X2653356Y5410356D01*
X2582644Y5410356D01*
X2582644Y5339644D01*
X2653356Y5339644D01*
X2653356Y5085644D02*
X2653356Y5156356D01*
X2582644Y5156356D01*
X2582644Y5085644D01*
X2653356Y5085644D01*
X2907356Y5339644D02*
X2907356Y5410356D01*
X2836644Y5410356D01*
X2836644Y5339644D01*
X2907356Y5339644D01*
X2907356Y5085644D02*
X2907356Y5156356D01*
X2836644Y5156356D01*
X2836644Y5085644D01*
X2907356Y5085644D01*
X3161356Y5339644D02*
X3161356Y5410356D01*
X3090644Y5410356D01*
X3090644Y5339644D01*
X3161356Y5339644D01*
X3161356Y5085644D02*
X3161356Y5156356D01*
X3090644Y5156356D01*
X3090644Y5085644D01*
X3161356Y5085644D01*
X3415356Y5339644D02*
X3415356Y5410356D01*
X3344644Y5410356D01*
X3344644Y5339644D01*
X3415356Y5339644D01*
X3415356Y5085644D02*
X3415356Y5156356D01*
X3344644Y5156356D01*
X3344644Y5085644D01*
X3415356Y5085644D01*
X3669356Y5339644D02*
X3669356Y5410356D01*
X3598644Y5410356D01*
X3598644Y5339644D01*
X3669356Y5339644D01*
X3669356Y5085644D02*
X3669356Y5156356D01*
X3598644Y5156356D01*
X3598644Y5085644D01*
X3669356Y5085644D01*
X3923356Y5339644D02*
X3923356Y5410356D01*
X3852644Y5410356D01*
X3852644Y5339644D01*
X3923356Y5339644D01*
X3923356Y5085644D02*
X3923356Y5156356D01*
X3852644Y5156356D01*
X3852644Y5085644D01*
X3923356Y5085644D01*
X4177356Y5339644D02*
X4177356Y5410356D01*
X4106644Y5410356D01*
X4106644Y5339644D01*
X4177356Y5339644D01*
X4177356Y5085644D02*
X4177356Y5156356D01*
X4106644Y5156356D01*
X4106644Y5085644D01*
X4177356Y5085644D01*
X4431356Y5339644D02*
X4431356Y5410356D01*
X4360644Y5410356D01*
X4360644Y5339644D01*
X4431356Y5339644D01*
X4431356Y5085644D02*
X4431356Y5156356D01*
X4360644Y5156356D01*
X4360644Y5085644D01*
X4431356Y5085644D01*
X4685356Y5339644D02*
X4685356Y5410356D01*
X4614644Y5410356D01*
X4614644Y5339644D01*
X4685356Y5339644D01*
X4685356Y5085644D02*
X4685356Y5156356D01*
X4614644Y5156356D01*
X4614644Y5085644D01*
X4685356Y5085644D01*
X4939356Y5339644D02*
X4939356Y5410356D01*
X4868644Y5410356D01*
X4868644Y5339644D01*
X4939356Y5339644D01*
X4939356Y5085644D02*
X4939356Y5156356D01*
X4868644Y5156356D01*
X4868644Y5085644D01*
X4939356Y5085644D01*
X5120356Y2451644D02*
X5120356Y2522356D01*
X5049644Y2522356D01*
X5049644Y2451644D01*
X5120356Y2451644D01*
X5120356Y2197644D02*
X5120356Y2268356D01*
X5049644Y2268356D01*
X5049644Y2197644D01*
X5120356Y2197644D01*
X5120356Y1943644D02*
X5120356Y2014356D01*
X5049644Y2014356D01*
X5049644Y1943644D01*
X5120356Y1943644D01*
X5120356Y1689644D02*
X5120356Y1760356D01*
X5049644Y1760356D01*
X5049644Y1689644D01*
X5120356Y1689644D01*
X5193356Y5339644D02*
X5193356Y5410356D01*
X5122644Y5410356D01*
X5122644Y5339644D01*
X5193356Y5339644D01*
X5193356Y5085644D02*
X5193356Y5156356D01*
X5122644Y5156356D01*
X5122644Y5085644D01*
X5193356Y5085644D01*
X5447356Y5339644D02*
X5447356Y5410356D01*
X5376644Y5410356D01*
X5376644Y5339644D01*
X5447356Y5339644D01*
X5447356Y5085644D02*
X5447356Y5156356D01*
X5376644Y5156356D01*
X5376644Y5085644D01*
X5447356Y5085644D01*
X5701356Y5339644D02*
X5701356Y5410356D01*
X5630644Y5410356D01*
X5630644Y5339644D01*
X5701356Y5339644D01*
X5701356Y5085644D02*
X5701356Y5156356D01*
X5630644Y5156356D01*
X5630644Y5085644D01*
X5701356Y5085644D01*
X5745356Y2454644D02*
X5745356Y2525356D01*
X5674644Y2525356D01*
X5674644Y2454644D01*
X5745356Y2454644D01*
X5995356Y2454644D02*
X5995356Y2525356D01*
X5924644Y2525356D01*
X5924644Y2454644D01*
X5995356Y2454644D01*
X6245356Y2454644D02*
X6245356Y2525356D01*
X6174644Y2525356D01*
X6174644Y2454644D01*
X6245356Y2454644D01*
D12*
X350000Y5115000D02*
X485000Y5250000D01*
X350000Y5385000D01*
X215000Y5250000D01*
X350000Y5115000D01*
X350000Y215000D02*
X485000Y350000D01*
X350000Y485000D01*
X215000Y350000D01*
X350000Y215000D01*
X6150000Y5115000D02*
X6285000Y5250000D01*
X6150000Y5385000D01*
X6015000Y5250000D01*
X6150000Y5115000D01*
X6150000Y215000D02*
X6285000Y350000D01*
X6150000Y485000D01*
X6015000Y350000D01*
X6150000Y215000D01*
D11*
X255777Y-316484D02*
X255777Y-116484D01*
X255777Y-116484D02*
X303396Y-116484D01*
X303396Y-116484D02*
X331967Y-126008D01*
X331967Y-126008D02*
X351015Y-145055D01*
X351015Y-145055D02*
X360539Y-164103D01*
X360539Y-164103D02*
X370062Y-202198D01*
X370062Y-202198D02*
X370062Y-230769D01*
X370062Y-230769D02*
X360539Y-268865D01*
X360539Y-268865D02*
X351015Y-287912D01*
X351015Y-287912D02*
X331967Y-306960D01*
X331967Y-306960D02*
X303396Y-316484D01*
X303396Y-316484D02*
X255777Y-316484D01*
X455777Y-316484D02*
X455777Y-183150D01*
X455777Y-221246D02*
X465301Y-202198D01*
X465301Y-202198D02*
X474824Y-192674D01*
X474824Y-192674D02*
X493872Y-183150D01*
X493872Y-183150D02*
X512920Y-183150D01*
X579586Y-316484D02*
X579586Y-183150D01*
X579586Y-116484D02*
X570063Y-126008D01*
X570063Y-126008D02*
X579586Y-135531D01*
X579586Y-135531D02*
X589110Y-126008D01*
X589110Y-126008D02*
X579586Y-116484D01*
X579586Y-116484D02*
X579586Y-135531D01*
X703396Y-316484D02*
X684348Y-306960D01*
X684348Y-306960D02*
X674824Y-287912D01*
X674824Y-287912D02*
X674824Y-116484D01*
X808158Y-316484D02*
X789110Y-306960D01*
X789110Y-306960D02*
X779586Y-287912D01*
X779586Y-287912D02*
X779586Y-116484D01*
X1036729Y-316484D02*
X1036729Y-116484D01*
X1036729Y-116484D02*
X1103396Y-259341D01*
X1103396Y-259341D02*
X1170063Y-116484D01*
X1170063Y-116484D02*
X1170063Y-316484D01*
X1351015Y-316484D02*
X1351015Y-211722D01*
X1351015Y-211722D02*
X1341491Y-192674D01*
X1341491Y-192674D02*
X1322444Y-183150D01*
X1322444Y-183150D02*
X1284348Y-183150D01*
X1284348Y-183150D02*
X1265301Y-192674D01*
X1351015Y-306960D02*
X1331967Y-316484D01*
X1331967Y-316484D02*
X1284348Y-316484D01*
X1284348Y-316484D02*
X1265301Y-306960D01*
X1265301Y-306960D02*
X1255777Y-287912D01*
X1255777Y-287912D02*
X1255777Y-268865D01*
X1255777Y-268865D02*
X1265301Y-249817D01*
X1265301Y-249817D02*
X1284348Y-240293D01*
X1284348Y-240293D02*
X1331967Y-240293D01*
X1331967Y-240293D02*
X1351015Y-230769D01*
X1446253Y-183150D02*
X1446253Y-383150D01*
X1446253Y-192674D02*
X1465301Y-183150D01*
X1465301Y-183150D02*
X1503396Y-183150D01*
X1503396Y-183150D02*
X1522443Y-192674D01*
X1522443Y-192674D02*
X1531967Y-202198D01*
X1531967Y-202198D02*
X1541491Y-221246D01*
X1541491Y-221246D02*
X1541491Y-278389D01*
X1541491Y-278389D02*
X1531967Y-297436D01*
X1531967Y-297436D02*
X1522443Y-306960D01*
X1522443Y-306960D02*
X1503396Y-316484D01*
X1503396Y-316484D02*
X1465301Y-316484D01*
X1465301Y-316484D02*
X1446253Y-306960D01*
X1627205Y-297436D02*
X1636729Y-306960D01*
X1636729Y-306960D02*
X1627205Y-316484D01*
X1627205Y-316484D02*
X1617682Y-306960D01*
X1617682Y-306960D02*
X1627205Y-297436D01*
X1627205Y-297436D02*
X1627205Y-316484D01*
X1627205Y-192674D02*
X1636729Y-202198D01*
X1636729Y-202198D02*
X1627205Y-211722D01*
X1627205Y-211722D02*
X1617682Y-202198D01*
X1617682Y-202198D02*
X1627205Y-192674D01*
X1627205Y-192674D02*
X1627205Y-211722D01*
D10*
X-45000Y-625000D02*
X-5000Y-665000D01*
X-5000Y-625000D02*
X-45000Y-665000D01*
D11*
X293872Y-536484D02*
X312920Y-536484D01*
X312920Y-536484D02*
X331967Y-546008D01*
X331967Y-546008D02*
X341491Y-555531D01*
X341491Y-555531D02*
X351015Y-574579D01*
X351015Y-574579D02*
X360539Y-612674D01*
X360539Y-612674D02*
X360539Y-660293D01*
X360539Y-660293D02*
X351015Y-698389D01*
X351015Y-698389D02*
X341491Y-717436D01*
X341491Y-717436D02*
X331967Y-726960D01*
X331967Y-726960D02*
X312920Y-736484D01*
X312920Y-736484D02*
X293872Y-736484D01*
X293872Y-736484D02*
X274824Y-726960D01*
X274824Y-726960D02*
X265301Y-717436D01*
X265301Y-717436D02*
X255777Y-698389D01*
X255777Y-698389D02*
X246253Y-660293D01*
X246253Y-660293D02*
X246253Y-612674D01*
X246253Y-612674D02*
X255777Y-574579D01*
X255777Y-574579D02*
X265301Y-555531D01*
X265301Y-555531D02*
X274824Y-546008D01*
X274824Y-546008D02*
X293872Y-536484D01*
X446253Y-717436D02*
X455777Y-726960D01*
X455777Y-726960D02*
X446253Y-736484D01*
X446253Y-736484D02*
X436729Y-726960D01*
X436729Y-726960D02*
X446253Y-717436D01*
X446253Y-717436D02*
X446253Y-736484D01*
X627205Y-603150D02*
X627205Y-736484D01*
X579586Y-526960D02*
X531967Y-669817D01*
X531967Y-669817D02*
X655777Y-669817D01*
X770062Y-536484D02*
X789110Y-536484D01*
X789110Y-536484D02*
X808158Y-546008D01*
X808158Y-546008D02*
X817682Y-555531D01*
X817682Y-555531D02*
X827205Y-574579D01*
X827205Y-574579D02*
X836729Y-612674D01*
X836729Y-612674D02*
X836729Y-660293D01*
X836729Y-660293D02*
X827205Y-698389D01*
X827205Y-698389D02*
X817682Y-717436D01*
X817682Y-717436D02*
X808158Y-726960D01*
X808158Y-726960D02*
X789110Y-736484D01*
X789110Y-736484D02*
X770062Y-736484D01*
X770062Y-736484D02*
X751015Y-726960D01*
X751015Y-726960D02*
X741491Y-717436D01*
X741491Y-717436D02*
X731967Y-698389D01*
X731967Y-698389D02*
X722443Y-660293D01*
X722443Y-660293D02*
X722443Y-612674D01*
X722443Y-612674D02*
X731967Y-574579D01*
X731967Y-574579D02*
X741491Y-555531D01*
X741491Y-555531D02*
X751015Y-546008D01*
X751015Y-546008D02*
X770062Y-536484D01*
X960539Y-536484D02*
X979586Y-536484D01*
X979586Y-536484D02*
X998634Y-546008D01*
X998634Y-546008D02*
X1008158Y-555531D01*
X1008158Y-555531D02*
X1017682Y-574579D01*
X1017682Y-574579D02*
X1027205Y-612674D01*
X1027205Y-612674D02*
X1027205Y-660293D01*
X1027205Y-660293D02*
X1017682Y-698389D01*
X1017682Y-698389D02*
X1008158Y-717436D01*
X1008158Y-717436D02*
X998634Y-726960D01*
X998634Y-726960D02*
X979586Y-736484D01*
X979586Y-736484D02*
X960539Y-736484D01*
X960539Y-736484D02*
X941491Y-726960D01*
X941491Y-726960D02*
X931967Y-717436D01*
X931967Y-717436D02*
X922443Y-698389D01*
X922443Y-698389D02*
X912920Y-660293D01*
X912920Y-660293D02*
X912920Y-612674D01*
X912920Y-612674D02*
X922443Y-574579D01*
X922443Y-574579D02*
X931967Y-555531D01*
X931967Y-555531D02*
X941491Y-546008D01*
X941491Y-546008D02*
X960539Y-536484D01*
X1112920Y-736484D02*
X1112920Y-603150D01*
X1112920Y-622198D02*
X1122444Y-612674D01*
X1122444Y-612674D02*
X1141491Y-603150D01*
X1141491Y-603150D02*
X1170063Y-603150D01*
X1170063Y-603150D02*
X1189110Y-612674D01*
X1189110Y-612674D02*
X1198634Y-631722D01*
X1198634Y-631722D02*
X1198634Y-736484D01*
X1198634Y-631722D02*
X1208158Y-612674D01*
X1208158Y-612674D02*
X1227205Y-603150D01*
X1227205Y-603150D02*
X1255777Y-603150D01*
X1255777Y-603150D02*
X1274825Y-612674D01*
X1274825Y-612674D02*
X1284348Y-631722D01*
X1284348Y-631722D02*
X1284348Y-736484D01*
X1379586Y-736484D02*
X1379586Y-603150D01*
X1379586Y-622198D02*
X1389110Y-612674D01*
X1389110Y-612674D02*
X1408158Y-603150D01*
X1408158Y-603150D02*
X1436729Y-603150D01*
X1436729Y-603150D02*
X1455777Y-612674D01*
X1455777Y-612674D02*
X1465301Y-631722D01*
X1465301Y-631722D02*
X1465301Y-736484D01*
X1465301Y-631722D02*
X1474824Y-612674D01*
X1474824Y-612674D02*
X1493872Y-603150D01*
X1493872Y-603150D02*
X1522443Y-603150D01*
X1522443Y-603150D02*
X1541491Y-612674D01*
X1541491Y-612674D02*
X1551015Y-631722D01*
X1551015Y-631722D02*
X1551015Y-736484D01*
X1941491Y-526960D02*
X1770063Y-784103D01*
X2198634Y-536484D02*
X2217682Y-536484D01*
X2217682Y-536484D02*
X2236729Y-546008D01*
X2236729Y-546008D02*
X2246253Y-555531D01*
X2246253Y-555531D02*
X2255777Y-574579D01*
X2255777Y-574579D02*
X2265301Y-612674D01*
X2265301Y-612674D02*
X2265301Y-660293D01*
X2265301Y-660293D02*
X2255777Y-698389D01*
X2255777Y-698389D02*
X2246253Y-717436D01*
X2246253Y-717436D02*
X2236729Y-726960D01*
X2236729Y-726960D02*
X2217682Y-736484D01*
X2217682Y-736484D02*
X2198634Y-736484D01*
X2198634Y-736484D02*
X2179587Y-726960D01*
X2179587Y-726960D02*
X2170063Y-717436D01*
X2170063Y-717436D02*
X2160539Y-698389D01*
X2160539Y-698389D02*
X2151015Y-660293D01*
X2151015Y-660293D02*
X2151015Y-612674D01*
X2151015Y-612674D02*
X2160539Y-574579D01*
X2160539Y-574579D02*
X2170063Y-555531D01*
X2170063Y-555531D02*
X2179587Y-546008D01*
X2179587Y-546008D02*
X2198634Y-536484D01*
X2351015Y-717436D02*
X2360539Y-726960D01*
X2360539Y-726960D02*
X2351015Y-736484D01*
X2351015Y-736484D02*
X2341491Y-726960D01*
X2341491Y-726960D02*
X2351015Y-717436D01*
X2351015Y-717436D02*
X2351015Y-736484D01*
X2484348Y-536484D02*
X2503396Y-536484D01*
X2503396Y-536484D02*
X2522444Y-546008D01*
X2522444Y-546008D02*
X2531968Y-555531D01*
X2531968Y-555531D02*
X2541491Y-574579D01*
X2541491Y-574579D02*
X2551015Y-612674D01*
X2551015Y-612674D02*
X2551015Y-660293D01*
X2551015Y-660293D02*
X2541491Y-698389D01*
X2541491Y-698389D02*
X2531968Y-717436D01*
X2531968Y-717436D02*
X2522444Y-726960D01*
X2522444Y-726960D02*
X2503396Y-736484D01*
X2503396Y-736484D02*
X2484348Y-736484D01*
X2484348Y-736484D02*
X2465301Y-726960D01*
X2465301Y-726960D02*
X2455777Y-717436D01*
X2455777Y-717436D02*
X2446253Y-698389D01*
X2446253Y-698389D02*
X2436729Y-660293D01*
X2436729Y-660293D02*
X2436729Y-612674D01*
X2436729Y-612674D02*
X2446253Y-574579D01*
X2446253Y-574579D02*
X2455777Y-555531D01*
X2455777Y-555531D02*
X2465301Y-546008D01*
X2465301Y-546008D02*
X2484348Y-536484D01*
X2741491Y-736484D02*
X2627206Y-736484D01*
X2684348Y-736484D02*
X2684348Y-536484D01*
X2684348Y-536484D02*
X2665301Y-565055D01*
X2665301Y-565055D02*
X2646253Y-584103D01*
X2646253Y-584103D02*
X2627206Y-593627D01*
X2922444Y-536484D02*
X2827206Y-536484D01*
X2827206Y-536484D02*
X2817682Y-631722D01*
X2817682Y-631722D02*
X2827206Y-622198D01*
X2827206Y-622198D02*
X2846253Y-612674D01*
X2846253Y-612674D02*
X2893872Y-612674D01*
X2893872Y-612674D02*
X2912920Y-622198D01*
X2912920Y-622198D02*
X2922444Y-631722D01*
X2922444Y-631722D02*
X2931967Y-650770D01*
X2931967Y-650770D02*
X2931967Y-698389D01*
X2931967Y-698389D02*
X2922444Y-717436D01*
X2922444Y-717436D02*
X2912920Y-726960D01*
X2912920Y-726960D02*
X2893872Y-736484D01*
X2893872Y-736484D02*
X2846253Y-736484D01*
X2846253Y-736484D02*
X2827206Y-726960D01*
X2827206Y-726960D02*
X2817682Y-717436D01*
X2998634Y-536484D02*
X3131967Y-536484D01*
X3131967Y-536484D02*
X3046253Y-736484D01*
X3198634Y-536484D02*
X3198634Y-574579D01*
X3274825Y-536484D02*
X3274825Y-574579D01*
X3570063Y-812674D02*
X3560539Y-803150D01*
X3560539Y-803150D02*
X3541491Y-774579D01*
X3541491Y-774579D02*
X3531968Y-755531D01*
X3531968Y-755531D02*
X3522444Y-726960D01*
X3522444Y-726960D02*
X3512920Y-679341D01*
X3512920Y-679341D02*
X3512920Y-641246D01*
X3512920Y-641246D02*
X3522444Y-593627D01*
X3522444Y-593627D02*
X3531968Y-565055D01*
X3531968Y-565055D02*
X3541491Y-546008D01*
X3541491Y-546008D02*
X3560539Y-517436D01*
X3560539Y-517436D02*
X3570063Y-507912D01*
X3636729Y-555531D02*
X3646253Y-546008D01*
X3646253Y-546008D02*
X3665301Y-536484D01*
X3665301Y-536484D02*
X3712920Y-536484D01*
X3712920Y-536484D02*
X3731968Y-546008D01*
X3731968Y-546008D02*
X3741491Y-555531D01*
X3741491Y-555531D02*
X3751015Y-574579D01*
X3751015Y-574579D02*
X3751015Y-593627D01*
X3751015Y-593627D02*
X3741491Y-622198D01*
X3741491Y-622198D02*
X3627206Y-736484D01*
X3627206Y-736484D02*
X3751015Y-736484D01*
X3874825Y-536484D02*
X3893872Y-536484D01*
X3893872Y-536484D02*
X3912920Y-546008D01*
X3912920Y-546008D02*
X3922444Y-555531D01*
X3922444Y-555531D02*
X3931968Y-574579D01*
X3931968Y-574579D02*
X3941491Y-612674D01*
X3941491Y-612674D02*
X3941491Y-660293D01*
X3941491Y-660293D02*
X3931968Y-698389D01*
X3931968Y-698389D02*
X3922444Y-717436D01*
X3922444Y-717436D02*
X3912920Y-726960D01*
X3912920Y-726960D02*
X3893872Y-736484D01*
X3893872Y-736484D02*
X3874825Y-736484D01*
X3874825Y-736484D02*
X3855777Y-726960D01*
X3855777Y-726960D02*
X3846253Y-717436D01*
X3846253Y-717436D02*
X3836729Y-698389D01*
X3836729Y-698389D02*
X3827206Y-660293D01*
X3827206Y-660293D02*
X3827206Y-612674D01*
X3827206Y-612674D02*
X3836729Y-574579D01*
X3836729Y-574579D02*
X3846253Y-555531D01*
X3846253Y-555531D02*
X3855777Y-546008D01*
X3855777Y-546008D02*
X3874825Y-536484D01*
X4065301Y-536484D02*
X4084349Y-536484D01*
X4084349Y-536484D02*
X4103396Y-546008D01*
X4103396Y-546008D02*
X4112920Y-555531D01*
X4112920Y-555531D02*
X4122444Y-574579D01*
X4122444Y-574579D02*
X4131968Y-612674D01*
X4131968Y-612674D02*
X4131968Y-660293D01*
X4131968Y-660293D02*
X4122444Y-698389D01*
X4122444Y-698389D02*
X4112920Y-717436D01*
X4112920Y-717436D02*
X4103396Y-726960D01*
X4103396Y-726960D02*
X4084349Y-736484D01*
X4084349Y-736484D02*
X4065301Y-736484D01*
X4065301Y-736484D02*
X4046253Y-726960D01*
X4046253Y-726960D02*
X4036729Y-717436D01*
X4036729Y-717436D02*
X4027206Y-698389D01*
X4027206Y-698389D02*
X4017682Y-660293D01*
X4017682Y-660293D02*
X4017682Y-612674D01*
X4017682Y-612674D02*
X4027206Y-574579D01*
X4027206Y-574579D02*
X4036729Y-555531D01*
X4036729Y-555531D02*
X4046253Y-546008D01*
X4046253Y-546008D02*
X4065301Y-536484D01*
X4370063Y-736484D02*
X4370063Y-536484D01*
X4455777Y-736484D02*
X4455777Y-631722D01*
X4455777Y-631722D02*
X4446253Y-612674D01*
X4446253Y-612674D02*
X4427206Y-603150D01*
X4427206Y-603150D02*
X4398634Y-603150D01*
X4398634Y-603150D02*
X4379587Y-612674D01*
X4379587Y-612674D02*
X4370063Y-622198D01*
X4579587Y-736484D02*
X4560539Y-726960D01*
X4560539Y-726960D02*
X4551015Y-717436D01*
X4551015Y-717436D02*
X4541492Y-698389D01*
X4541492Y-698389D02*
X4541492Y-641246D01*
X4541492Y-641246D02*
X4551015Y-622198D01*
X4551015Y-622198D02*
X4560539Y-612674D01*
X4560539Y-612674D02*
X4579587Y-603150D01*
X4579587Y-603150D02*
X4608158Y-603150D01*
X4608158Y-603150D02*
X4627206Y-612674D01*
X4627206Y-612674D02*
X4636730Y-622198D01*
X4636730Y-622198D02*
X4646253Y-641246D01*
X4646253Y-641246D02*
X4646253Y-698389D01*
X4646253Y-698389D02*
X4636730Y-717436D01*
X4636730Y-717436D02*
X4627206Y-726960D01*
X4627206Y-726960D02*
X4608158Y-736484D01*
X4608158Y-736484D02*
X4579587Y-736484D01*
X4760539Y-736484D02*
X4741492Y-726960D01*
X4741492Y-726960D02*
X4731968Y-707912D01*
X4731968Y-707912D02*
X4731968Y-536484D01*
X4912920Y-726960D02*
X4893873Y-736484D01*
X4893873Y-736484D02*
X4855777Y-736484D01*
X4855777Y-736484D02*
X4836730Y-726960D01*
X4836730Y-726960D02*
X4827206Y-707912D01*
X4827206Y-707912D02*
X4827206Y-631722D01*
X4827206Y-631722D02*
X4836730Y-612674D01*
X4836730Y-612674D02*
X4855777Y-603150D01*
X4855777Y-603150D02*
X4893873Y-603150D01*
X4893873Y-603150D02*
X4912920Y-612674D01*
X4912920Y-612674D02*
X4922444Y-631722D01*
X4922444Y-631722D02*
X4922444Y-650770D01*
X4922444Y-650770D02*
X4827206Y-669817D01*
X4998634Y-726960D02*
X5017682Y-736484D01*
X5017682Y-736484D02*
X5055777Y-736484D01*
X5055777Y-736484D02*
X5074825Y-726960D01*
X5074825Y-726960D02*
X5084349Y-707912D01*
X5084349Y-707912D02*
X5084349Y-698389D01*
X5084349Y-698389D02*
X5074825Y-679341D01*
X5074825Y-679341D02*
X5055777Y-669817D01*
X5055777Y-669817D02*
X5027206Y-669817D01*
X5027206Y-669817D02*
X5008158Y-660293D01*
X5008158Y-660293D02*
X4998634Y-641246D01*
X4998634Y-641246D02*
X4998634Y-631722D01*
X4998634Y-631722D02*
X5008158Y-612674D01*
X5008158Y-612674D02*
X5027206Y-603150D01*
X5027206Y-603150D02*
X5055777Y-603150D01*
X5055777Y-603150D02*
X5074825Y-612674D01*
X5151015Y-812674D02*
X5160539Y-803150D01*
X5160539Y-803150D02*
X5179587Y-774579D01*
X5179587Y-774579D02*
X5189111Y-755531D01*
X5189111Y-755531D02*
X5198634Y-726960D01*
X5198634Y-726960D02*
X5208158Y-679341D01*
X5208158Y-679341D02*
X5208158Y-641246D01*
X5208158Y-641246D02*
X5198634Y-593627D01*
X5198634Y-593627D02*
X5189111Y-565055D01*
X5189111Y-565055D02*
X5179587Y-546008D01*
X5179587Y-546008D02*
X5160539Y-517436D01*
X5160539Y-517436D02*
X5151015Y-507912D01*
D10*
X-5000Y-909000D02*
G75*
G03*
X-5000Y-909000I-40000J0D01*
G01*
D11*
X293872Y-800484D02*
X312920Y-800484D01*
X312920Y-800484D02*
X331967Y-810008D01*
X331967Y-810008D02*
X341491Y-819531D01*
X341491Y-819531D02*
X351015Y-838579D01*
X351015Y-838579D02*
X360539Y-876674D01*
X360539Y-876674D02*
X360539Y-924293D01*
X360539Y-924293D02*
X351015Y-962388D01*
X351015Y-962388D02*
X341491Y-981436D01*
X341491Y-981436D02*
X331967Y-990960D01*
X331967Y-990960D02*
X312920Y-1000484D01*
X312920Y-1000484D02*
X293872Y-1000484D01*
X293872Y-1000484D02*
X274824Y-990960D01*
X274824Y-990960D02*
X265301Y-981436D01*
X265301Y-981436D02*
X255777Y-962388D01*
X255777Y-962388D02*
X246253Y-924293D01*
X246253Y-924293D02*
X246253Y-876674D01*
X246253Y-876674D02*
X255777Y-838579D01*
X255777Y-838579D02*
X265301Y-819531D01*
X265301Y-819531D02*
X274824Y-810008D01*
X274824Y-810008D02*
X293872Y-800484D01*
X446253Y-981436D02*
X455777Y-990960D01*
X455777Y-990960D02*
X446253Y-1000484D01*
X446253Y-1000484D02*
X436729Y-990960D01*
X436729Y-990960D02*
X446253Y-981436D01*
X446253Y-981436D02*
X446253Y-1000484D01*
X570063Y-886198D02*
X551015Y-876674D01*
X551015Y-876674D02*
X541491Y-867150D01*
X541491Y-867150D02*
X531967Y-848103D01*
X531967Y-848103D02*
X531967Y-838579D01*
X531967Y-838579D02*
X541491Y-819531D01*
X541491Y-819531D02*
X551015Y-810008D01*
X551015Y-810008D02*
X570063Y-800484D01*
X570063Y-800484D02*
X608158Y-800484D01*
X608158Y-800484D02*
X627205Y-810008D01*
X627205Y-810008D02*
X636729Y-819531D01*
X636729Y-819531D02*
X646253Y-838579D01*
X646253Y-838579D02*
X646253Y-848103D01*
X646253Y-848103D02*
X636729Y-867150D01*
X636729Y-867150D02*
X627205Y-876674D01*
X627205Y-876674D02*
X608158Y-886198D01*
X608158Y-886198D02*
X570063Y-886198D01*
X570063Y-886198D02*
X551015Y-895722D01*
X551015Y-895722D02*
X541491Y-905246D01*
X541491Y-905246D02*
X531967Y-924293D01*
X531967Y-924293D02*
X531967Y-962388D01*
X531967Y-962388D02*
X541491Y-981436D01*
X541491Y-981436D02*
X551015Y-990960D01*
X551015Y-990960D02*
X570063Y-1000484D01*
X570063Y-1000484D02*
X608158Y-1000484D01*
X608158Y-1000484D02*
X627205Y-990960D01*
X627205Y-990960D02*
X636729Y-981436D01*
X636729Y-981436D02*
X646253Y-962388D01*
X646253Y-962388D02*
X646253Y-924293D01*
X646253Y-924293D02*
X636729Y-905246D01*
X636729Y-905246D02*
X627205Y-895722D01*
X627205Y-895722D02*
X608158Y-886198D01*
X770062Y-800484D02*
X789110Y-800484D01*
X789110Y-800484D02*
X808158Y-810008D01*
X808158Y-810008D02*
X817682Y-819531D01*
X817682Y-819531D02*
X827205Y-838579D01*
X827205Y-838579D02*
X836729Y-876674D01*
X836729Y-876674D02*
X836729Y-924293D01*
X836729Y-924293D02*
X827205Y-962388D01*
X827205Y-962388D02*
X817682Y-981436D01*
X817682Y-981436D02*
X808158Y-990960D01*
X808158Y-990960D02*
X789110Y-1000484D01*
X789110Y-1000484D02*
X770062Y-1000484D01*
X770062Y-1000484D02*
X751015Y-990960D01*
X751015Y-990960D02*
X741491Y-981436D01*
X741491Y-981436D02*
X731967Y-962388D01*
X731967Y-962388D02*
X722443Y-924293D01*
X722443Y-924293D02*
X722443Y-876674D01*
X722443Y-876674D02*
X731967Y-838579D01*
X731967Y-838579D02*
X741491Y-819531D01*
X741491Y-819531D02*
X751015Y-810008D01*
X751015Y-810008D02*
X770062Y-800484D01*
X960539Y-800484D02*
X979586Y-800484D01*
X979586Y-800484D02*
X998634Y-810008D01*
X998634Y-810008D02*
X1008158Y-819531D01*
X1008158Y-819531D02*
X1017682Y-838579D01*
X1017682Y-838579D02*
X1027205Y-876674D01*
X1027205Y-876674D02*
X1027205Y-924293D01*
X1027205Y-924293D02*
X1017682Y-962388D01*
X1017682Y-962388D02*
X1008158Y-981436D01*
X1008158Y-981436D02*
X998634Y-990960D01*
X998634Y-990960D02*
X979586Y-1000484D01*
X979586Y-1000484D02*
X960539Y-1000484D01*
X960539Y-1000484D02*
X941491Y-990960D01*
X941491Y-990960D02*
X931967Y-981436D01*
X931967Y-981436D02*
X922443Y-962388D01*
X922443Y-962388D02*
X912920Y-924293D01*
X912920Y-924293D02*
X912920Y-876674D01*
X912920Y-876674D02*
X922443Y-838579D01*
X922443Y-838579D02*
X931967Y-819531D01*
X931967Y-819531D02*
X941491Y-810008D01*
X941491Y-810008D02*
X960539Y-800484D01*
X1112920Y-1000484D02*
X1112920Y-867150D01*
X1112920Y-886198D02*
X1122444Y-876674D01*
X1122444Y-876674D02*
X1141491Y-867150D01*
X1141491Y-867150D02*
X1170063Y-867150D01*
X1170063Y-867150D02*
X1189110Y-876674D01*
X1189110Y-876674D02*
X1198634Y-895722D01*
X1198634Y-895722D02*
X1198634Y-1000484D01*
X1198634Y-895722D02*
X1208158Y-876674D01*
X1208158Y-876674D02*
X1227205Y-867150D01*
X1227205Y-867150D02*
X1255777Y-867150D01*
X1255777Y-867150D02*
X1274825Y-876674D01*
X1274825Y-876674D02*
X1284348Y-895722D01*
X1284348Y-895722D02*
X1284348Y-1000484D01*
X1379586Y-1000484D02*
X1379586Y-867150D01*
X1379586Y-886198D02*
X1389110Y-876674D01*
X1389110Y-876674D02*
X1408158Y-867150D01*
X1408158Y-867150D02*
X1436729Y-867150D01*
X1436729Y-867150D02*
X1455777Y-876674D01*
X1455777Y-876674D02*
X1465301Y-895722D01*
X1465301Y-895722D02*
X1465301Y-1000484D01*
X1465301Y-895722D02*
X1474824Y-876674D01*
X1474824Y-876674D02*
X1493872Y-867150D01*
X1493872Y-867150D02*
X1522443Y-867150D01*
X1522443Y-867150D02*
X1541491Y-876674D01*
X1541491Y-876674D02*
X1551015Y-895722D01*
X1551015Y-895722D02*
X1551015Y-1000484D01*
X1941491Y-790960D02*
X1770063Y-1048103D01*
X2198634Y-800484D02*
X2217682Y-800484D01*
X2217682Y-800484D02*
X2236729Y-810008D01*
X2236729Y-810008D02*
X2246253Y-819531D01*
X2246253Y-819531D02*
X2255777Y-838579D01*
X2255777Y-838579D02*
X2265301Y-876674D01*
X2265301Y-876674D02*
X2265301Y-924293D01*
X2265301Y-924293D02*
X2255777Y-962388D01*
X2255777Y-962388D02*
X2246253Y-981436D01*
X2246253Y-981436D02*
X2236729Y-990960D01*
X2236729Y-990960D02*
X2217682Y-1000484D01*
X2217682Y-1000484D02*
X2198634Y-1000484D01*
X2198634Y-1000484D02*
X2179587Y-990960D01*
X2179587Y-990960D02*
X2170063Y-981436D01*
X2170063Y-981436D02*
X2160539Y-962388D01*
X2160539Y-962388D02*
X2151015Y-924293D01*
X2151015Y-924293D02*
X2151015Y-876674D01*
X2151015Y-876674D02*
X2160539Y-838579D01*
X2160539Y-838579D02*
X2170063Y-819531D01*
X2170063Y-819531D02*
X2179587Y-810008D01*
X2179587Y-810008D02*
X2198634Y-800484D01*
X2351015Y-981436D02*
X2360539Y-990960D01*
X2360539Y-990960D02*
X2351015Y-1000484D01*
X2351015Y-1000484D02*
X2341491Y-990960D01*
X2341491Y-990960D02*
X2351015Y-981436D01*
X2351015Y-981436D02*
X2351015Y-1000484D01*
X2484348Y-800484D02*
X2503396Y-800484D01*
X2503396Y-800484D02*
X2522444Y-810008D01*
X2522444Y-810008D02*
X2531968Y-819531D01*
X2531968Y-819531D02*
X2541491Y-838579D01*
X2541491Y-838579D02*
X2551015Y-876674D01*
X2551015Y-876674D02*
X2551015Y-924293D01*
X2551015Y-924293D02*
X2541491Y-962388D01*
X2541491Y-962388D02*
X2531968Y-981436D01*
X2531968Y-981436D02*
X2522444Y-990960D01*
X2522444Y-990960D02*
X2503396Y-1000484D01*
X2503396Y-1000484D02*
X2484348Y-1000484D01*
X2484348Y-1000484D02*
X2465301Y-990960D01*
X2465301Y-990960D02*
X2455777Y-981436D01*
X2455777Y-981436D02*
X2446253Y-962388D01*
X2446253Y-962388D02*
X2436729Y-924293D01*
X2436729Y-924293D02*
X2436729Y-876674D01*
X2436729Y-876674D02*
X2446253Y-838579D01*
X2446253Y-838579D02*
X2455777Y-819531D01*
X2455777Y-819531D02*
X2465301Y-810008D01*
X2465301Y-810008D02*
X2484348Y-800484D01*
X2617682Y-800484D02*
X2741491Y-800484D01*
X2741491Y-800484D02*
X2674825Y-876674D01*
X2674825Y-876674D02*
X2703396Y-876674D01*
X2703396Y-876674D02*
X2722444Y-886198D01*
X2722444Y-886198D02*
X2731968Y-895722D01*
X2731968Y-895722D02*
X2741491Y-914769D01*
X2741491Y-914769D02*
X2741491Y-962388D01*
X2741491Y-962388D02*
X2731968Y-981436D01*
X2731968Y-981436D02*
X2722444Y-990960D01*
X2722444Y-990960D02*
X2703396Y-1000484D01*
X2703396Y-1000484D02*
X2646253Y-1000484D01*
X2646253Y-1000484D02*
X2627206Y-990960D01*
X2627206Y-990960D02*
X2617682Y-981436D01*
X2931967Y-1000484D02*
X2817682Y-1000484D01*
X2874825Y-1000484D02*
X2874825Y-800484D01*
X2874825Y-800484D02*
X2855777Y-829055D01*
X2855777Y-829055D02*
X2836729Y-848103D01*
X2836729Y-848103D02*
X2817682Y-857627D01*
X3112920Y-800484D02*
X3017682Y-800484D01*
X3017682Y-800484D02*
X3008158Y-895722D01*
X3008158Y-895722D02*
X3017682Y-886198D01*
X3017682Y-886198D02*
X3036729Y-876674D01*
X3036729Y-876674D02*
X3084348Y-876674D01*
X3084348Y-876674D02*
X3103396Y-886198D01*
X3103396Y-886198D02*
X3112920Y-895722D01*
X3112920Y-895722D02*
X3122444Y-914769D01*
X3122444Y-914769D02*
X3122444Y-962388D01*
X3122444Y-962388D02*
X3112920Y-981436D01*
X3112920Y-981436D02*
X3103396Y-990960D01*
X3103396Y-990960D02*
X3084348Y-1000484D01*
X3084348Y-1000484D02*
X3036729Y-1000484D01*
X3036729Y-1000484D02*
X3017682Y-990960D01*
X3017682Y-990960D02*
X3008158Y-981436D01*
X3198634Y-800484D02*
X3198634Y-838579D01*
X3274825Y-800484D02*
X3274825Y-838579D01*
X3570063Y-1076674D02*
X3560539Y-1067150D01*
X3560539Y-1067150D02*
X3541491Y-1038579D01*
X3541491Y-1038579D02*
X3531968Y-1019531D01*
X3531968Y-1019531D02*
X3522444Y-990960D01*
X3522444Y-990960D02*
X3512920Y-943341D01*
X3512920Y-943341D02*
X3512920Y-905246D01*
X3512920Y-905246D02*
X3522444Y-857627D01*
X3522444Y-857627D02*
X3531968Y-829055D01*
X3531968Y-829055D02*
X3541491Y-810008D01*
X3541491Y-810008D02*
X3560539Y-781436D01*
X3560539Y-781436D02*
X3570063Y-771912D01*
X3636729Y-819531D02*
X3646253Y-810008D01*
X3646253Y-810008D02*
X3665301Y-800484D01*
X3665301Y-800484D02*
X3712920Y-800484D01*
X3712920Y-800484D02*
X3731968Y-810008D01*
X3731968Y-810008D02*
X3741491Y-819531D01*
X3741491Y-819531D02*
X3751015Y-838579D01*
X3751015Y-838579D02*
X3751015Y-857627D01*
X3751015Y-857627D02*
X3741491Y-886198D01*
X3741491Y-886198D02*
X3627206Y-1000484D01*
X3627206Y-1000484D02*
X3751015Y-1000484D01*
X3989110Y-1000484D02*
X3989110Y-800484D01*
X4074825Y-1000484D02*
X4074825Y-895722D01*
X4074825Y-895722D02*
X4065301Y-876674D01*
X4065301Y-876674D02*
X4046253Y-867150D01*
X4046253Y-867150D02*
X4017682Y-867150D01*
X4017682Y-867150D02*
X3998634Y-876674D01*
X3998634Y-876674D02*
X3989110Y-886198D01*
X4198634Y-1000484D02*
X4179587Y-990960D01*
X4179587Y-990960D02*
X4170063Y-981436D01*
X4170063Y-981436D02*
X4160539Y-962388D01*
X4160539Y-962388D02*
X4160539Y-905246D01*
X4160539Y-905246D02*
X4170063Y-886198D01*
X4170063Y-886198D02*
X4179587Y-876674D01*
X4179587Y-876674D02*
X4198634Y-867150D01*
X4198634Y-867150D02*
X4227206Y-867150D01*
X4227206Y-867150D02*
X4246253Y-876674D01*
X4246253Y-876674D02*
X4255777Y-886198D01*
X4255777Y-886198D02*
X4265301Y-905246D01*
X4265301Y-905246D02*
X4265301Y-962388D01*
X4265301Y-962388D02*
X4255777Y-981436D01*
X4255777Y-981436D02*
X4246253Y-990960D01*
X4246253Y-990960D02*
X4227206Y-1000484D01*
X4227206Y-1000484D02*
X4198634Y-1000484D01*
X4379587Y-1000484D02*
X4360539Y-990960D01*
X4360539Y-990960D02*
X4351015Y-971912D01*
X4351015Y-971912D02*
X4351015Y-800484D01*
X4531968Y-990960D02*
X4512920Y-1000484D01*
X4512920Y-1000484D02*
X4474825Y-1000484D01*
X4474825Y-1000484D02*
X4455777Y-990960D01*
X4455777Y-990960D02*
X4446253Y-971912D01*
X4446253Y-971912D02*
X4446253Y-895722D01*
X4446253Y-895722D02*
X4455777Y-876674D01*
X4455777Y-876674D02*
X4474825Y-867150D01*
X4474825Y-867150D02*
X4512920Y-867150D01*
X4512920Y-867150D02*
X4531968Y-876674D01*
X4531968Y-876674D02*
X4541492Y-895722D01*
X4541492Y-895722D02*
X4541492Y-914769D01*
X4541492Y-914769D02*
X4446253Y-933817D01*
X4617682Y-990960D02*
X4636730Y-1000484D01*
X4636730Y-1000484D02*
X4674825Y-1000484D01*
X4674825Y-1000484D02*
X4693873Y-990960D01*
X4693873Y-990960D02*
X4703396Y-971912D01*
X4703396Y-971912D02*
X4703396Y-962388D01*
X4703396Y-962388D02*
X4693873Y-943341D01*
X4693873Y-943341D02*
X4674825Y-933817D01*
X4674825Y-933817D02*
X4646253Y-933817D01*
X4646253Y-933817D02*
X4627206Y-924293D01*
X4627206Y-924293D02*
X4617682Y-905246D01*
X4617682Y-905246D02*
X4617682Y-895722D01*
X4617682Y-895722D02*
X4627206Y-876674D01*
X4627206Y-876674D02*
X4646253Y-867150D01*
X4646253Y-867150D02*
X4674825Y-867150D01*
X4674825Y-867150D02*
X4693873Y-876674D01*
X4770063Y-1076674D02*
X4779587Y-1067150D01*
X4779587Y-1067150D02*
X4798634Y-1038579D01*
X4798634Y-1038579D02*
X4808158Y-1019531D01*
X4808158Y-1019531D02*
X4817682Y-990960D01*
X4817682Y-990960D02*
X4827206Y-943341D01*
X4827206Y-943341D02*
X4827206Y-905246D01*
X4827206Y-905246D02*
X4817682Y-857627D01*
X4817682Y-857627D02*
X4808158Y-829055D01*
X4808158Y-829055D02*
X4798634Y-810008D01*
X4798634Y-810008D02*
X4779587Y-781436D01*
X4779587Y-781436D02*
X4770063Y-771912D01*
D10*
X-52500Y-1125500D02*
X-52500Y-1220500D01*
X-100000Y-1173000D02*
X-5000Y-1173000D01*
D11*
X293872Y-1064484D02*
X312920Y-1064484D01*
X312920Y-1064484D02*
X331967Y-1074008D01*
X331967Y-1074008D02*
X341491Y-1083531D01*
X341491Y-1083531D02*
X351015Y-1102579D01*
X351015Y-1102579D02*
X360539Y-1140674D01*
X360539Y-1140674D02*
X360539Y-1188293D01*
X360539Y-1188293D02*
X351015Y-1226389D01*
X351015Y-1226389D02*
X341491Y-1245436D01*
X341491Y-1245436D02*
X331967Y-1254960D01*
X331967Y-1254960D02*
X312920Y-1264484D01*
X312920Y-1264484D02*
X293872Y-1264484D01*
X293872Y-1264484D02*
X274824Y-1254960D01*
X274824Y-1254960D02*
X265301Y-1245436D01*
X265301Y-1245436D02*
X255777Y-1226389D01*
X255777Y-1226389D02*
X246253Y-1188293D01*
X246253Y-1188293D02*
X246253Y-1140674D01*
X246253Y-1140674D02*
X255777Y-1102579D01*
X255777Y-1102579D02*
X265301Y-1083531D01*
X265301Y-1083531D02*
X274824Y-1074008D01*
X274824Y-1074008D02*
X293872Y-1064484D01*
X446253Y-1245436D02*
X455777Y-1254960D01*
X455777Y-1254960D02*
X446253Y-1264484D01*
X446253Y-1264484D02*
X436729Y-1254960D01*
X436729Y-1254960D02*
X446253Y-1245436D01*
X446253Y-1245436D02*
X446253Y-1264484D01*
X551015Y-1264484D02*
X589110Y-1264484D01*
X589110Y-1264484D02*
X608158Y-1254960D01*
X608158Y-1254960D02*
X617682Y-1245436D01*
X617682Y-1245436D02*
X636729Y-1216865D01*
X636729Y-1216865D02*
X646253Y-1178770D01*
X646253Y-1178770D02*
X646253Y-1102579D01*
X646253Y-1102579D02*
X636729Y-1083531D01*
X636729Y-1083531D02*
X627205Y-1074008D01*
X627205Y-1074008D02*
X608158Y-1064484D01*
X608158Y-1064484D02*
X570063Y-1064484D01*
X570063Y-1064484D02*
X551015Y-1074008D01*
X551015Y-1074008D02*
X541491Y-1083531D01*
X541491Y-1083531D02*
X531967Y-1102579D01*
X531967Y-1102579D02*
X531967Y-1150198D01*
X531967Y-1150198D02*
X541491Y-1169246D01*
X541491Y-1169246D02*
X551015Y-1178770D01*
X551015Y-1178770D02*
X570063Y-1188293D01*
X570063Y-1188293D02*
X608158Y-1188293D01*
X608158Y-1188293D02*
X627205Y-1178770D01*
X627205Y-1178770D02*
X636729Y-1169246D01*
X636729Y-1169246D02*
X646253Y-1150198D01*
X827205Y-1064484D02*
X731967Y-1064484D01*
X731967Y-1064484D02*
X722443Y-1159722D01*
X722443Y-1159722D02*
X731967Y-1150198D01*
X731967Y-1150198D02*
X751015Y-1140674D01*
X751015Y-1140674D02*
X798634Y-1140674D01*
X798634Y-1140674D02*
X817682Y-1150198D01*
X817682Y-1150198D02*
X827205Y-1159722D01*
X827205Y-1159722D02*
X836729Y-1178770D01*
X836729Y-1178770D02*
X836729Y-1226389D01*
X836729Y-1226389D02*
X827205Y-1245436D01*
X827205Y-1245436D02*
X817682Y-1254960D01*
X817682Y-1254960D02*
X798634Y-1264484D01*
X798634Y-1264484D02*
X751015Y-1264484D01*
X751015Y-1264484D02*
X731967Y-1254960D01*
X731967Y-1254960D02*
X722443Y-1245436D01*
X960539Y-1064484D02*
X979586Y-1064484D01*
X979586Y-1064484D02*
X998634Y-1074008D01*
X998634Y-1074008D02*
X1008158Y-1083531D01*
X1008158Y-1083531D02*
X1017682Y-1102579D01*
X1017682Y-1102579D02*
X1027205Y-1140674D01*
X1027205Y-1140674D02*
X1027205Y-1188293D01*
X1027205Y-1188293D02*
X1017682Y-1226389D01*
X1017682Y-1226389D02*
X1008158Y-1245436D01*
X1008158Y-1245436D02*
X998634Y-1254960D01*
X998634Y-1254960D02*
X979586Y-1264484D01*
X979586Y-1264484D02*
X960539Y-1264484D01*
X960539Y-1264484D02*
X941491Y-1254960D01*
X941491Y-1254960D02*
X931967Y-1245436D01*
X931967Y-1245436D02*
X922443Y-1226389D01*
X922443Y-1226389D02*
X912920Y-1188293D01*
X912920Y-1188293D02*
X912920Y-1140674D01*
X912920Y-1140674D02*
X922443Y-1102579D01*
X922443Y-1102579D02*
X931967Y-1083531D01*
X931967Y-1083531D02*
X941491Y-1074008D01*
X941491Y-1074008D02*
X960539Y-1064484D01*
X1112920Y-1264484D02*
X1112920Y-1131150D01*
X1112920Y-1150198D02*
X1122444Y-1140674D01*
X1122444Y-1140674D02*
X1141491Y-1131150D01*
X1141491Y-1131150D02*
X1170063Y-1131150D01*
X1170063Y-1131150D02*
X1189110Y-1140674D01*
X1189110Y-1140674D02*
X1198634Y-1159722D01*
X1198634Y-1159722D02*
X1198634Y-1264484D01*
X1198634Y-1159722D02*
X1208158Y-1140674D01*
X1208158Y-1140674D02*
X1227205Y-1131150D01*
X1227205Y-1131150D02*
X1255777Y-1131150D01*
X1255777Y-1131150D02*
X1274825Y-1140674D01*
X1274825Y-1140674D02*
X1284348Y-1159722D01*
X1284348Y-1159722D02*
X1284348Y-1264484D01*
X1379586Y-1264484D02*
X1379586Y-1131150D01*
X1379586Y-1150198D02*
X1389110Y-1140674D01*
X1389110Y-1140674D02*
X1408158Y-1131150D01*
X1408158Y-1131150D02*
X1436729Y-1131150D01*
X1436729Y-1131150D02*
X1455777Y-1140674D01*
X1455777Y-1140674D02*
X1465301Y-1159722D01*
X1465301Y-1159722D02*
X1465301Y-1264484D01*
X1465301Y-1159722D02*
X1474824Y-1140674D01*
X1474824Y-1140674D02*
X1493872Y-1131150D01*
X1493872Y-1131150D02*
X1522443Y-1131150D01*
X1522443Y-1131150D02*
X1541491Y-1140674D01*
X1541491Y-1140674D02*
X1551015Y-1159722D01*
X1551015Y-1159722D02*
X1551015Y-1264484D01*
X1941491Y-1054960D02*
X1770063Y-1312103D01*
X2198634Y-1064484D02*
X2217682Y-1064484D01*
X2217682Y-1064484D02*
X2236729Y-1074008D01*
X2236729Y-1074008D02*
X2246253Y-1083531D01*
X2246253Y-1083531D02*
X2255777Y-1102579D01*
X2255777Y-1102579D02*
X2265301Y-1140674D01*
X2265301Y-1140674D02*
X2265301Y-1188293D01*
X2265301Y-1188293D02*
X2255777Y-1226389D01*
X2255777Y-1226389D02*
X2246253Y-1245436D01*
X2246253Y-1245436D02*
X2236729Y-1254960D01*
X2236729Y-1254960D02*
X2217682Y-1264484D01*
X2217682Y-1264484D02*
X2198634Y-1264484D01*
X2198634Y-1264484D02*
X2179587Y-1254960D01*
X2179587Y-1254960D02*
X2170063Y-1245436D01*
X2170063Y-1245436D02*
X2160539Y-1226389D01*
X2160539Y-1226389D02*
X2151015Y-1188293D01*
X2151015Y-1188293D02*
X2151015Y-1140674D01*
X2151015Y-1140674D02*
X2160539Y-1102579D01*
X2160539Y-1102579D02*
X2170063Y-1083531D01*
X2170063Y-1083531D02*
X2179587Y-1074008D01*
X2179587Y-1074008D02*
X2198634Y-1064484D01*
X2351015Y-1245436D02*
X2360539Y-1254960D01*
X2360539Y-1254960D02*
X2351015Y-1264484D01*
X2351015Y-1264484D02*
X2341491Y-1254960D01*
X2341491Y-1254960D02*
X2351015Y-1245436D01*
X2351015Y-1245436D02*
X2351015Y-1264484D01*
X2484348Y-1064484D02*
X2503396Y-1064484D01*
X2503396Y-1064484D02*
X2522444Y-1074008D01*
X2522444Y-1074008D02*
X2531968Y-1083531D01*
X2531968Y-1083531D02*
X2541491Y-1102579D01*
X2541491Y-1102579D02*
X2551015Y-1140674D01*
X2551015Y-1140674D02*
X2551015Y-1188293D01*
X2551015Y-1188293D02*
X2541491Y-1226389D01*
X2541491Y-1226389D02*
X2531968Y-1245436D01*
X2531968Y-1245436D02*
X2522444Y-1254960D01*
X2522444Y-1254960D02*
X2503396Y-1264484D01*
X2503396Y-1264484D02*
X2484348Y-1264484D01*
X2484348Y-1264484D02*
X2465301Y-1254960D01*
X2465301Y-1254960D02*
X2455777Y-1245436D01*
X2455777Y-1245436D02*
X2446253Y-1226389D01*
X2446253Y-1226389D02*
X2436729Y-1188293D01*
X2436729Y-1188293D02*
X2436729Y-1140674D01*
X2436729Y-1140674D02*
X2446253Y-1102579D01*
X2446253Y-1102579D02*
X2455777Y-1083531D01*
X2455777Y-1083531D02*
X2465301Y-1074008D01*
X2465301Y-1074008D02*
X2484348Y-1064484D01*
X2617682Y-1064484D02*
X2741491Y-1064484D01*
X2741491Y-1064484D02*
X2674825Y-1140674D01*
X2674825Y-1140674D02*
X2703396Y-1140674D01*
X2703396Y-1140674D02*
X2722444Y-1150198D01*
X2722444Y-1150198D02*
X2731968Y-1159722D01*
X2731968Y-1159722D02*
X2741491Y-1178770D01*
X2741491Y-1178770D02*
X2741491Y-1226389D01*
X2741491Y-1226389D02*
X2731968Y-1245436D01*
X2731968Y-1245436D02*
X2722444Y-1254960D01*
X2722444Y-1254960D02*
X2703396Y-1264484D01*
X2703396Y-1264484D02*
X2646253Y-1264484D01*
X2646253Y-1264484D02*
X2627206Y-1254960D01*
X2627206Y-1254960D02*
X2617682Y-1245436D01*
X2808158Y-1064484D02*
X2941491Y-1064484D01*
X2941491Y-1064484D02*
X2855777Y-1264484D01*
X3103396Y-1131150D02*
X3103396Y-1264484D01*
X3055777Y-1054960D02*
X3008158Y-1197817D01*
X3008158Y-1197817D02*
X3131967Y-1197817D01*
X3198634Y-1064484D02*
X3198634Y-1102579D01*
X3274825Y-1064484D02*
X3274825Y-1102579D01*
X3570063Y-1340674D02*
X3560539Y-1331150D01*
X3560539Y-1331150D02*
X3541491Y-1302579D01*
X3541491Y-1302579D02*
X3531968Y-1283531D01*
X3531968Y-1283531D02*
X3522444Y-1254960D01*
X3522444Y-1254960D02*
X3512920Y-1207341D01*
X3512920Y-1207341D02*
X3512920Y-1169246D01*
X3512920Y-1169246D02*
X3522444Y-1121627D01*
X3522444Y-1121627D02*
X3531968Y-1093055D01*
X3531968Y-1093055D02*
X3541491Y-1074008D01*
X3541491Y-1074008D02*
X3560539Y-1045436D01*
X3560539Y-1045436D02*
X3570063Y-1035912D01*
X3751015Y-1264484D02*
X3636729Y-1264484D01*
X3693872Y-1264484D02*
X3693872Y-1064484D01*
X3693872Y-1064484D02*
X3674825Y-1093055D01*
X3674825Y-1093055D02*
X3655777Y-1112103D01*
X3655777Y-1112103D02*
X3636729Y-1121627D01*
X3922444Y-1131150D02*
X3922444Y-1264484D01*
X3874825Y-1054960D02*
X3827206Y-1197817D01*
X3827206Y-1197817D02*
X3951015Y-1197817D01*
X4179587Y-1264484D02*
X4179587Y-1064484D01*
X4265301Y-1264484D02*
X4265301Y-1159722D01*
X4265301Y-1159722D02*
X4255777Y-1140674D01*
X4255777Y-1140674D02*
X4236730Y-1131150D01*
X4236730Y-1131150D02*
X4208158Y-1131150D01*
X4208158Y-1131150D02*
X4189110Y-1140674D01*
X4189110Y-1140674D02*
X4179587Y-1150198D01*
X4389111Y-1264484D02*
X4370063Y-1254960D01*
X4370063Y-1254960D02*
X4360539Y-1245436D01*
X4360539Y-1245436D02*
X4351015Y-1226389D01*
X4351015Y-1226389D02*
X4351015Y-1169246D01*
X4351015Y-1169246D02*
X4360539Y-1150198D01*
X4360539Y-1150198D02*
X4370063Y-1140674D01*
X4370063Y-1140674D02*
X4389111Y-1131150D01*
X4389111Y-1131150D02*
X4417682Y-1131150D01*
X4417682Y-1131150D02*
X4436730Y-1140674D01*
X4436730Y-1140674D02*
X4446253Y-1150198D01*
X4446253Y-1150198D02*
X4455777Y-1169246D01*
X4455777Y-1169246D02*
X4455777Y-1226389D01*
X4455777Y-1226389D02*
X4446253Y-1245436D01*
X4446253Y-1245436D02*
X4436730Y-1254960D01*
X4436730Y-1254960D02*
X4417682Y-1264484D01*
X4417682Y-1264484D02*
X4389111Y-1264484D01*
X4570063Y-1264484D02*
X4551015Y-1254960D01*
X4551015Y-1254960D02*
X4541492Y-1235912D01*
X4541492Y-1235912D02*
X4541492Y-1064484D01*
X4722444Y-1254960D02*
X4703396Y-1264484D01*
X4703396Y-1264484D02*
X4665301Y-1264484D01*
X4665301Y-1264484D02*
X4646253Y-1254960D01*
X4646253Y-1254960D02*
X4636730Y-1235912D01*
X4636730Y-1235912D02*
X4636730Y-1159722D01*
X4636730Y-1159722D02*
X4646253Y-1140674D01*
X4646253Y-1140674D02*
X4665301Y-1131150D01*
X4665301Y-1131150D02*
X4703396Y-1131150D01*
X4703396Y-1131150D02*
X4722444Y-1140674D01*
X4722444Y-1140674D02*
X4731968Y-1159722D01*
X4731968Y-1159722D02*
X4731968Y-1178770D01*
X4731968Y-1178770D02*
X4636730Y-1197817D01*
X4808158Y-1254960D02*
X4827206Y-1264484D01*
X4827206Y-1264484D02*
X4865301Y-1264484D01*
X4865301Y-1264484D02*
X4884349Y-1254960D01*
X4884349Y-1254960D02*
X4893873Y-1235912D01*
X4893873Y-1235912D02*
X4893873Y-1226389D01*
X4893873Y-1226389D02*
X4884349Y-1207341D01*
X4884349Y-1207341D02*
X4865301Y-1197817D01*
X4865301Y-1197817D02*
X4836730Y-1197817D01*
X4836730Y-1197817D02*
X4817682Y-1188293D01*
X4817682Y-1188293D02*
X4808158Y-1169246D01*
X4808158Y-1169246D02*
X4808158Y-1159722D01*
X4808158Y-1159722D02*
X4817682Y-1140674D01*
X4817682Y-1140674D02*
X4836730Y-1131150D01*
X4836730Y-1131150D02*
X4865301Y-1131150D01*
X4865301Y-1131150D02*
X4884349Y-1140674D01*
X4960539Y-1340674D02*
X4970063Y-1331150D01*
X4970063Y-1331150D02*
X4989111Y-1302579D01*
X4989111Y-1302579D02*
X4998634Y-1283531D01*
X4998634Y-1283531D02*
X5008158Y-1254960D01*
X5008158Y-1254960D02*
X5017682Y-1207341D01*
X5017682Y-1207341D02*
X5017682Y-1169246D01*
X5017682Y-1169246D02*
X5008158Y-1121627D01*
X5008158Y-1121627D02*
X4998634Y-1093055D01*
X4998634Y-1093055D02*
X4989111Y-1074008D01*
X4989111Y-1074008D02*
X4970063Y-1045436D01*
X4970063Y-1045436D02*
X4960539Y-1035912D01*
D10*
X-19644Y-1472356D02*
X-19644Y-1401644D01*
X-90356Y-1401644D01*
X-90356Y-1472356D01*
X-19644Y-1472356D01*
D11*
X360539Y-1528484D02*
X246253Y-1528484D01*
X303396Y-1528484D02*
X303396Y-1328484D01*
X303396Y-1328484D02*
X284348Y-1357055D01*
X284348Y-1357055D02*
X265301Y-1376103D01*
X265301Y-1376103D02*
X246253Y-1385627D01*
X446253Y-1509436D02*
X455777Y-1518960D01*
X455777Y-1518960D02*
X446253Y-1528484D01*
X446253Y-1528484D02*
X436729Y-1518960D01*
X436729Y-1518960D02*
X446253Y-1509436D01*
X446253Y-1509436D02*
X446253Y-1528484D01*
X579586Y-1328484D02*
X598634Y-1328484D01*
X598634Y-1328484D02*
X617682Y-1338008D01*
X617682Y-1338008D02*
X627205Y-1347531D01*
X627205Y-1347531D02*
X636729Y-1366579D01*
X636729Y-1366579D02*
X646253Y-1404674D01*
X646253Y-1404674D02*
X646253Y-1452293D01*
X646253Y-1452293D02*
X636729Y-1490388D01*
X636729Y-1490388D02*
X627205Y-1509436D01*
X627205Y-1509436D02*
X617682Y-1518960D01*
X617682Y-1518960D02*
X598634Y-1528484D01*
X598634Y-1528484D02*
X579586Y-1528484D01*
X579586Y-1528484D02*
X560539Y-1518960D01*
X560539Y-1518960D02*
X551015Y-1509436D01*
X551015Y-1509436D02*
X541491Y-1490388D01*
X541491Y-1490388D02*
X531967Y-1452293D01*
X531967Y-1452293D02*
X531967Y-1404674D01*
X531967Y-1404674D02*
X541491Y-1366579D01*
X541491Y-1366579D02*
X551015Y-1347531D01*
X551015Y-1347531D02*
X560539Y-1338008D01*
X560539Y-1338008D02*
X579586Y-1328484D01*
X770062Y-1328484D02*
X789110Y-1328484D01*
X789110Y-1328484D02*
X808158Y-1338008D01*
X808158Y-1338008D02*
X817682Y-1347531D01*
X817682Y-1347531D02*
X827205Y-1366579D01*
X827205Y-1366579D02*
X836729Y-1404674D01*
X836729Y-1404674D02*
X836729Y-1452293D01*
X836729Y-1452293D02*
X827205Y-1490388D01*
X827205Y-1490388D02*
X817682Y-1509436D01*
X817682Y-1509436D02*
X808158Y-1518960D01*
X808158Y-1518960D02*
X789110Y-1528484D01*
X789110Y-1528484D02*
X770062Y-1528484D01*
X770062Y-1528484D02*
X751015Y-1518960D01*
X751015Y-1518960D02*
X741491Y-1509436D01*
X741491Y-1509436D02*
X731967Y-1490388D01*
X731967Y-1490388D02*
X722443Y-1452293D01*
X722443Y-1452293D02*
X722443Y-1404674D01*
X722443Y-1404674D02*
X731967Y-1366579D01*
X731967Y-1366579D02*
X741491Y-1347531D01*
X741491Y-1347531D02*
X751015Y-1338008D01*
X751015Y-1338008D02*
X770062Y-1328484D01*
X960539Y-1328484D02*
X979586Y-1328484D01*
X979586Y-1328484D02*
X998634Y-1338008D01*
X998634Y-1338008D02*
X1008158Y-1347531D01*
X1008158Y-1347531D02*
X1017682Y-1366579D01*
X1017682Y-1366579D02*
X1027205Y-1404674D01*
X1027205Y-1404674D02*
X1027205Y-1452293D01*
X1027205Y-1452293D02*
X1017682Y-1490388D01*
X1017682Y-1490388D02*
X1008158Y-1509436D01*
X1008158Y-1509436D02*
X998634Y-1518960D01*
X998634Y-1518960D02*
X979586Y-1528484D01*
X979586Y-1528484D02*
X960539Y-1528484D01*
X960539Y-1528484D02*
X941491Y-1518960D01*
X941491Y-1518960D02*
X931967Y-1509436D01*
X931967Y-1509436D02*
X922443Y-1490388D01*
X922443Y-1490388D02*
X912920Y-1452293D01*
X912920Y-1452293D02*
X912920Y-1404674D01*
X912920Y-1404674D02*
X922443Y-1366579D01*
X922443Y-1366579D02*
X931967Y-1347531D01*
X931967Y-1347531D02*
X941491Y-1338008D01*
X941491Y-1338008D02*
X960539Y-1328484D01*
X1112920Y-1528484D02*
X1112920Y-1395150D01*
X1112920Y-1414198D02*
X1122444Y-1404674D01*
X1122444Y-1404674D02*
X1141491Y-1395150D01*
X1141491Y-1395150D02*
X1170063Y-1395150D01*
X1170063Y-1395150D02*
X1189110Y-1404674D01*
X1189110Y-1404674D02*
X1198634Y-1423722D01*
X1198634Y-1423722D02*
X1198634Y-1528484D01*
X1198634Y-1423722D02*
X1208158Y-1404674D01*
X1208158Y-1404674D02*
X1227205Y-1395150D01*
X1227205Y-1395150D02*
X1255777Y-1395150D01*
X1255777Y-1395150D02*
X1274825Y-1404674D01*
X1274825Y-1404674D02*
X1284348Y-1423722D01*
X1284348Y-1423722D02*
X1284348Y-1528484D01*
X1379586Y-1528484D02*
X1379586Y-1395150D01*
X1379586Y-1414198D02*
X1389110Y-1404674D01*
X1389110Y-1404674D02*
X1408158Y-1395150D01*
X1408158Y-1395150D02*
X1436729Y-1395150D01*
X1436729Y-1395150D02*
X1455777Y-1404674D01*
X1455777Y-1404674D02*
X1465301Y-1423722D01*
X1465301Y-1423722D02*
X1465301Y-1528484D01*
X1465301Y-1423722D02*
X1474824Y-1404674D01*
X1474824Y-1404674D02*
X1493872Y-1395150D01*
X1493872Y-1395150D02*
X1522443Y-1395150D01*
X1522443Y-1395150D02*
X1541491Y-1404674D01*
X1541491Y-1404674D02*
X1551015Y-1423722D01*
X1551015Y-1423722D02*
X1551015Y-1528484D01*
X1941491Y-1318960D02*
X1770063Y-1576103D01*
X2198634Y-1328484D02*
X2217682Y-1328484D01*
X2217682Y-1328484D02*
X2236729Y-1338008D01*
X2236729Y-1338008D02*
X2246253Y-1347531D01*
X2246253Y-1347531D02*
X2255777Y-1366579D01*
X2255777Y-1366579D02*
X2265301Y-1404674D01*
X2265301Y-1404674D02*
X2265301Y-1452293D01*
X2265301Y-1452293D02*
X2255777Y-1490388D01*
X2255777Y-1490388D02*
X2246253Y-1509436D01*
X2246253Y-1509436D02*
X2236729Y-1518960D01*
X2236729Y-1518960D02*
X2217682Y-1528484D01*
X2217682Y-1528484D02*
X2198634Y-1528484D01*
X2198634Y-1528484D02*
X2179587Y-1518960D01*
X2179587Y-1518960D02*
X2170063Y-1509436D01*
X2170063Y-1509436D02*
X2160539Y-1490388D01*
X2160539Y-1490388D02*
X2151015Y-1452293D01*
X2151015Y-1452293D02*
X2151015Y-1404674D01*
X2151015Y-1404674D02*
X2160539Y-1366579D01*
X2160539Y-1366579D02*
X2170063Y-1347531D01*
X2170063Y-1347531D02*
X2179587Y-1338008D01*
X2179587Y-1338008D02*
X2198634Y-1328484D01*
X2351015Y-1509436D02*
X2360539Y-1518960D01*
X2360539Y-1518960D02*
X2351015Y-1528484D01*
X2351015Y-1528484D02*
X2341491Y-1518960D01*
X2341491Y-1518960D02*
X2351015Y-1509436D01*
X2351015Y-1509436D02*
X2351015Y-1528484D01*
X2484348Y-1328484D02*
X2503396Y-1328484D01*
X2503396Y-1328484D02*
X2522444Y-1338008D01*
X2522444Y-1338008D02*
X2531968Y-1347531D01*
X2531968Y-1347531D02*
X2541491Y-1366579D01*
X2541491Y-1366579D02*
X2551015Y-1404674D01*
X2551015Y-1404674D02*
X2551015Y-1452293D01*
X2551015Y-1452293D02*
X2541491Y-1490388D01*
X2541491Y-1490388D02*
X2531968Y-1509436D01*
X2531968Y-1509436D02*
X2522444Y-1518960D01*
X2522444Y-1518960D02*
X2503396Y-1528484D01*
X2503396Y-1528484D02*
X2484348Y-1528484D01*
X2484348Y-1528484D02*
X2465301Y-1518960D01*
X2465301Y-1518960D02*
X2455777Y-1509436D01*
X2455777Y-1509436D02*
X2446253Y-1490388D01*
X2446253Y-1490388D02*
X2436729Y-1452293D01*
X2436729Y-1452293D02*
X2436729Y-1404674D01*
X2436729Y-1404674D02*
X2446253Y-1366579D01*
X2446253Y-1366579D02*
X2455777Y-1347531D01*
X2455777Y-1347531D02*
X2465301Y-1338008D01*
X2465301Y-1338008D02*
X2484348Y-1328484D01*
X2617682Y-1328484D02*
X2741491Y-1328484D01*
X2741491Y-1328484D02*
X2674825Y-1404674D01*
X2674825Y-1404674D02*
X2703396Y-1404674D01*
X2703396Y-1404674D02*
X2722444Y-1414198D01*
X2722444Y-1414198D02*
X2731968Y-1423722D01*
X2731968Y-1423722D02*
X2741491Y-1442769D01*
X2741491Y-1442769D02*
X2741491Y-1490388D01*
X2741491Y-1490388D02*
X2731968Y-1509436D01*
X2731968Y-1509436D02*
X2722444Y-1518960D01*
X2722444Y-1518960D02*
X2703396Y-1528484D01*
X2703396Y-1528484D02*
X2646253Y-1528484D01*
X2646253Y-1528484D02*
X2627206Y-1518960D01*
X2627206Y-1518960D02*
X2617682Y-1509436D01*
X2836729Y-1528484D02*
X2874825Y-1528484D01*
X2874825Y-1528484D02*
X2893872Y-1518960D01*
X2893872Y-1518960D02*
X2903396Y-1509436D01*
X2903396Y-1509436D02*
X2922444Y-1480865D01*
X2922444Y-1480865D02*
X2931967Y-1442769D01*
X2931967Y-1442769D02*
X2931967Y-1366579D01*
X2931967Y-1366579D02*
X2922444Y-1347531D01*
X2922444Y-1347531D02*
X2912920Y-1338008D01*
X2912920Y-1338008D02*
X2893872Y-1328484D01*
X2893872Y-1328484D02*
X2855777Y-1328484D01*
X2855777Y-1328484D02*
X2836729Y-1338008D01*
X2836729Y-1338008D02*
X2827206Y-1347531D01*
X2827206Y-1347531D02*
X2817682Y-1366579D01*
X2817682Y-1366579D02*
X2817682Y-1414198D01*
X2817682Y-1414198D02*
X2827206Y-1433246D01*
X2827206Y-1433246D02*
X2836729Y-1442769D01*
X2836729Y-1442769D02*
X2855777Y-1452293D01*
X2855777Y-1452293D02*
X2893872Y-1452293D01*
X2893872Y-1452293D02*
X2912920Y-1442769D01*
X2912920Y-1442769D02*
X2922444Y-1433246D01*
X2922444Y-1433246D02*
X2931967Y-1414198D01*
X3103396Y-1395150D02*
X3103396Y-1528484D01*
X3055777Y-1318960D02*
X3008158Y-1461817D01*
X3008158Y-1461817D02*
X3131967Y-1461817D01*
X3198634Y-1328484D02*
X3198634Y-1366579D01*
X3274825Y-1328484D02*
X3274825Y-1366579D01*
X3570063Y-1604674D02*
X3560539Y-1595150D01*
X3560539Y-1595150D02*
X3541491Y-1566579D01*
X3541491Y-1566579D02*
X3531968Y-1547531D01*
X3531968Y-1547531D02*
X3522444Y-1518960D01*
X3522444Y-1518960D02*
X3512920Y-1471341D01*
X3512920Y-1471341D02*
X3512920Y-1433246D01*
X3512920Y-1433246D02*
X3522444Y-1385627D01*
X3522444Y-1385627D02*
X3531968Y-1357055D01*
X3531968Y-1357055D02*
X3541491Y-1338008D01*
X3541491Y-1338008D02*
X3560539Y-1309436D01*
X3560539Y-1309436D02*
X3570063Y-1299912D01*
X3731968Y-1395150D02*
X3731968Y-1528484D01*
X3684348Y-1318960D02*
X3636729Y-1461817D01*
X3636729Y-1461817D02*
X3760539Y-1461817D01*
X3817682Y-1328484D02*
X3951015Y-1328484D01*
X3951015Y-1328484D02*
X3865301Y-1528484D01*
X4179587Y-1528484D02*
X4179587Y-1328484D01*
X4265301Y-1528484D02*
X4265301Y-1423722D01*
X4265301Y-1423722D02*
X4255777Y-1404674D01*
X4255777Y-1404674D02*
X4236730Y-1395150D01*
X4236730Y-1395150D02*
X4208158Y-1395150D01*
X4208158Y-1395150D02*
X4189110Y-1404674D01*
X4189110Y-1404674D02*
X4179587Y-1414198D01*
X4389111Y-1528484D02*
X4370063Y-1518960D01*
X4370063Y-1518960D02*
X4360539Y-1509436D01*
X4360539Y-1509436D02*
X4351015Y-1490388D01*
X4351015Y-1490388D02*
X4351015Y-1433246D01*
X4351015Y-1433246D02*
X4360539Y-1414198D01*
X4360539Y-1414198D02*
X4370063Y-1404674D01*
X4370063Y-1404674D02*
X4389111Y-1395150D01*
X4389111Y-1395150D02*
X4417682Y-1395150D01*
X4417682Y-1395150D02*
X4436730Y-1404674D01*
X4436730Y-1404674D02*
X4446253Y-1414198D01*
X4446253Y-1414198D02*
X4455777Y-1433246D01*
X4455777Y-1433246D02*
X4455777Y-1490388D01*
X4455777Y-1490388D02*
X4446253Y-1509436D01*
X4446253Y-1509436D02*
X4436730Y-1518960D01*
X4436730Y-1518960D02*
X4417682Y-1528484D01*
X4417682Y-1528484D02*
X4389111Y-1528484D01*
X4570063Y-1528484D02*
X4551015Y-1518960D01*
X4551015Y-1518960D02*
X4541492Y-1499912D01*
X4541492Y-1499912D02*
X4541492Y-1328484D01*
X4722444Y-1518960D02*
X4703396Y-1528484D01*
X4703396Y-1528484D02*
X4665301Y-1528484D01*
X4665301Y-1528484D02*
X4646253Y-1518960D01*
X4646253Y-1518960D02*
X4636730Y-1499912D01*
X4636730Y-1499912D02*
X4636730Y-1423722D01*
X4636730Y-1423722D02*
X4646253Y-1404674D01*
X4646253Y-1404674D02*
X4665301Y-1395150D01*
X4665301Y-1395150D02*
X4703396Y-1395150D01*
X4703396Y-1395150D02*
X4722444Y-1404674D01*
X4722444Y-1404674D02*
X4731968Y-1423722D01*
X4731968Y-1423722D02*
X4731968Y-1442769D01*
X4731968Y-1442769D02*
X4636730Y-1461817D01*
X4808158Y-1518960D02*
X4827206Y-1528484D01*
X4827206Y-1528484D02*
X4865301Y-1528484D01*
X4865301Y-1528484D02*
X4884349Y-1518960D01*
X4884349Y-1518960D02*
X4893873Y-1499912D01*
X4893873Y-1499912D02*
X4893873Y-1490388D01*
X4893873Y-1490388D02*
X4884349Y-1471341D01*
X4884349Y-1471341D02*
X4865301Y-1461817D01*
X4865301Y-1461817D02*
X4836730Y-1461817D01*
X4836730Y-1461817D02*
X4817682Y-1452293D01*
X4817682Y-1452293D02*
X4808158Y-1433246D01*
X4808158Y-1433246D02*
X4808158Y-1423722D01*
X4808158Y-1423722D02*
X4817682Y-1404674D01*
X4817682Y-1404674D02*
X4836730Y-1395150D01*
X4836730Y-1395150D02*
X4865301Y-1395150D01*
X4865301Y-1395150D02*
X4884349Y-1404674D01*
X4960539Y-1604674D02*
X4970063Y-1595150D01*
X4970063Y-1595150D02*
X4989111Y-1566579D01*
X4989111Y-1566579D02*
X4998634Y-1547531D01*
X4998634Y-1547531D02*
X5008158Y-1518960D01*
X5008158Y-1518960D02*
X5017682Y-1471341D01*
X5017682Y-1471341D02*
X5017682Y-1433246D01*
X5017682Y-1433246D02*
X5008158Y-1385627D01*
X5008158Y-1385627D02*
X4998634Y-1357055D01*
X4998634Y-1357055D02*
X4989111Y-1338008D01*
X4989111Y-1338008D02*
X4970063Y-1309436D01*
X4970063Y-1309436D02*
X4960539Y-1299912D01*
X-105000Y-1801000D02*
X-5000Y-1701000D01*
X-105000Y-1601000D01*
X-205000Y-1701000D01*
X-105000Y-1801000D01*
X246253Y-1611531D02*
X255777Y-1602008D01*
X255777Y-1602008D02*
X274824Y-1592484D01*
X274824Y-1592484D02*
X322444Y-1592484D01*
X322444Y-1592484D02*
X341491Y-1602008D01*
X341491Y-1602008D02*
X351015Y-1611531D01*
X351015Y-1611531D02*
X360539Y-1630579D01*
X360539Y-1630579D02*
X360539Y-1649627D01*
X360539Y-1649627D02*
X351015Y-1678198D01*
X351015Y-1678198D02*
X236729Y-1792484D01*
X236729Y-1792484D02*
X360539Y-1792484D01*
X446253Y-1773436D02*
X455777Y-1782960D01*
X455777Y-1782960D02*
X446253Y-1792484D01*
X446253Y-1792484D02*
X436729Y-1782960D01*
X436729Y-1782960D02*
X446253Y-1773436D01*
X446253Y-1773436D02*
X446253Y-1792484D01*
X522443Y-1592484D02*
X655777Y-1592484D01*
X655777Y-1592484D02*
X570063Y-1792484D01*
X770062Y-1592484D02*
X789110Y-1592484D01*
X789110Y-1592484D02*
X808158Y-1602008D01*
X808158Y-1602008D02*
X817682Y-1611531D01*
X817682Y-1611531D02*
X827205Y-1630579D01*
X827205Y-1630579D02*
X836729Y-1668674D01*
X836729Y-1668674D02*
X836729Y-1716293D01*
X836729Y-1716293D02*
X827205Y-1754388D01*
X827205Y-1754388D02*
X817682Y-1773436D01*
X817682Y-1773436D02*
X808158Y-1782960D01*
X808158Y-1782960D02*
X789110Y-1792484D01*
X789110Y-1792484D02*
X770062Y-1792484D01*
X770062Y-1792484D02*
X751015Y-1782960D01*
X751015Y-1782960D02*
X741491Y-1773436D01*
X741491Y-1773436D02*
X731967Y-1754388D01*
X731967Y-1754388D02*
X722443Y-1716293D01*
X722443Y-1716293D02*
X722443Y-1668674D01*
X722443Y-1668674D02*
X731967Y-1630579D01*
X731967Y-1630579D02*
X741491Y-1611531D01*
X741491Y-1611531D02*
X751015Y-1602008D01*
X751015Y-1602008D02*
X770062Y-1592484D01*
X960539Y-1592484D02*
X979586Y-1592484D01*
X979586Y-1592484D02*
X998634Y-1602008D01*
X998634Y-1602008D02*
X1008158Y-1611531D01*
X1008158Y-1611531D02*
X1017682Y-1630579D01*
X1017682Y-1630579D02*
X1027205Y-1668674D01*
X1027205Y-1668674D02*
X1027205Y-1716293D01*
X1027205Y-1716293D02*
X1017682Y-1754388D01*
X1017682Y-1754388D02*
X1008158Y-1773436D01*
X1008158Y-1773436D02*
X998634Y-1782960D01*
X998634Y-1782960D02*
X979586Y-1792484D01*
X979586Y-1792484D02*
X960539Y-1792484D01*
X960539Y-1792484D02*
X941491Y-1782960D01*
X941491Y-1782960D02*
X931967Y-1773436D01*
X931967Y-1773436D02*
X922443Y-1754388D01*
X922443Y-1754388D02*
X912920Y-1716293D01*
X912920Y-1716293D02*
X912920Y-1668674D01*
X912920Y-1668674D02*
X922443Y-1630579D01*
X922443Y-1630579D02*
X931967Y-1611531D01*
X931967Y-1611531D02*
X941491Y-1602008D01*
X941491Y-1602008D02*
X960539Y-1592484D01*
X1112920Y-1792484D02*
X1112920Y-1659150D01*
X1112920Y-1678198D02*
X1122444Y-1668674D01*
X1122444Y-1668674D02*
X1141491Y-1659150D01*
X1141491Y-1659150D02*
X1170063Y-1659150D01*
X1170063Y-1659150D02*
X1189110Y-1668674D01*
X1189110Y-1668674D02*
X1198634Y-1687722D01*
X1198634Y-1687722D02*
X1198634Y-1792484D01*
X1198634Y-1687722D02*
X1208158Y-1668674D01*
X1208158Y-1668674D02*
X1227205Y-1659150D01*
X1227205Y-1659150D02*
X1255777Y-1659150D01*
X1255777Y-1659150D02*
X1274825Y-1668674D01*
X1274825Y-1668674D02*
X1284348Y-1687722D01*
X1284348Y-1687722D02*
X1284348Y-1792484D01*
X1379586Y-1792484D02*
X1379586Y-1659150D01*
X1379586Y-1678198D02*
X1389110Y-1668674D01*
X1389110Y-1668674D02*
X1408158Y-1659150D01*
X1408158Y-1659150D02*
X1436729Y-1659150D01*
X1436729Y-1659150D02*
X1455777Y-1668674D01*
X1455777Y-1668674D02*
X1465301Y-1687722D01*
X1465301Y-1687722D02*
X1465301Y-1792484D01*
X1465301Y-1687722D02*
X1474824Y-1668674D01*
X1474824Y-1668674D02*
X1493872Y-1659150D01*
X1493872Y-1659150D02*
X1522443Y-1659150D01*
X1522443Y-1659150D02*
X1541491Y-1668674D01*
X1541491Y-1668674D02*
X1551015Y-1687722D01*
X1551015Y-1687722D02*
X1551015Y-1792484D01*
X1941491Y-1582960D02*
X1770063Y-1840103D01*
X2198634Y-1592484D02*
X2217682Y-1592484D01*
X2217682Y-1592484D02*
X2236729Y-1602008D01*
X2236729Y-1602008D02*
X2246253Y-1611531D01*
X2246253Y-1611531D02*
X2255777Y-1630579D01*
X2255777Y-1630579D02*
X2265301Y-1668674D01*
X2265301Y-1668674D02*
X2265301Y-1716293D01*
X2265301Y-1716293D02*
X2255777Y-1754388D01*
X2255777Y-1754388D02*
X2246253Y-1773436D01*
X2246253Y-1773436D02*
X2236729Y-1782960D01*
X2236729Y-1782960D02*
X2217682Y-1792484D01*
X2217682Y-1792484D02*
X2198634Y-1792484D01*
X2198634Y-1792484D02*
X2179587Y-1782960D01*
X2179587Y-1782960D02*
X2170063Y-1773436D01*
X2170063Y-1773436D02*
X2160539Y-1754388D01*
X2160539Y-1754388D02*
X2151015Y-1716293D01*
X2151015Y-1716293D02*
X2151015Y-1668674D01*
X2151015Y-1668674D02*
X2160539Y-1630579D01*
X2160539Y-1630579D02*
X2170063Y-1611531D01*
X2170063Y-1611531D02*
X2179587Y-1602008D01*
X2179587Y-1602008D02*
X2198634Y-1592484D01*
X2351015Y-1773436D02*
X2360539Y-1782960D01*
X2360539Y-1782960D02*
X2351015Y-1792484D01*
X2351015Y-1792484D02*
X2341491Y-1782960D01*
X2341491Y-1782960D02*
X2351015Y-1773436D01*
X2351015Y-1773436D02*
X2351015Y-1792484D01*
X2551015Y-1792484D02*
X2436729Y-1792484D01*
X2493872Y-1792484D02*
X2493872Y-1592484D01*
X2493872Y-1592484D02*
X2474825Y-1621055D01*
X2474825Y-1621055D02*
X2455777Y-1640103D01*
X2455777Y-1640103D02*
X2436729Y-1649627D01*
X2674825Y-1592484D02*
X2693872Y-1592484D01*
X2693872Y-1592484D02*
X2712920Y-1602008D01*
X2712920Y-1602008D02*
X2722444Y-1611531D01*
X2722444Y-1611531D02*
X2731968Y-1630579D01*
X2731968Y-1630579D02*
X2741491Y-1668674D01*
X2741491Y-1668674D02*
X2741491Y-1716293D01*
X2741491Y-1716293D02*
X2731968Y-1754388D01*
X2731968Y-1754388D02*
X2722444Y-1773436D01*
X2722444Y-1773436D02*
X2712920Y-1782960D01*
X2712920Y-1782960D02*
X2693872Y-1792484D01*
X2693872Y-1792484D02*
X2674825Y-1792484D01*
X2674825Y-1792484D02*
X2655777Y-1782960D01*
X2655777Y-1782960D02*
X2646253Y-1773436D01*
X2646253Y-1773436D02*
X2636729Y-1754388D01*
X2636729Y-1754388D02*
X2627206Y-1716293D01*
X2627206Y-1716293D02*
X2627206Y-1668674D01*
X2627206Y-1668674D02*
X2636729Y-1630579D01*
X2636729Y-1630579D02*
X2646253Y-1611531D01*
X2646253Y-1611531D02*
X2655777Y-1602008D01*
X2655777Y-1602008D02*
X2674825Y-1592484D01*
X2912920Y-1592484D02*
X2874825Y-1592484D01*
X2874825Y-1592484D02*
X2855777Y-1602008D01*
X2855777Y-1602008D02*
X2846253Y-1611531D01*
X2846253Y-1611531D02*
X2827206Y-1640103D01*
X2827206Y-1640103D02*
X2817682Y-1678198D01*
X2817682Y-1678198D02*
X2817682Y-1754388D01*
X2817682Y-1754388D02*
X2827206Y-1773436D01*
X2827206Y-1773436D02*
X2836729Y-1782960D01*
X2836729Y-1782960D02*
X2855777Y-1792484D01*
X2855777Y-1792484D02*
X2893872Y-1792484D01*
X2893872Y-1792484D02*
X2912920Y-1782960D01*
X2912920Y-1782960D02*
X2922444Y-1773436D01*
X2922444Y-1773436D02*
X2931967Y-1754388D01*
X2931967Y-1754388D02*
X2931967Y-1706769D01*
X2931967Y-1706769D02*
X2922444Y-1687722D01*
X2922444Y-1687722D02*
X2912920Y-1678198D01*
X2912920Y-1678198D02*
X2893872Y-1668674D01*
X2893872Y-1668674D02*
X2855777Y-1668674D01*
X2855777Y-1668674D02*
X2836729Y-1678198D01*
X2836729Y-1678198D02*
X2827206Y-1687722D01*
X2827206Y-1687722D02*
X2817682Y-1706769D01*
X2998634Y-1592484D02*
X3122444Y-1592484D01*
X3122444Y-1592484D02*
X3055777Y-1668674D01*
X3055777Y-1668674D02*
X3084348Y-1668674D01*
X3084348Y-1668674D02*
X3103396Y-1678198D01*
X3103396Y-1678198D02*
X3112920Y-1687722D01*
X3112920Y-1687722D02*
X3122444Y-1706769D01*
X3122444Y-1706769D02*
X3122444Y-1754388D01*
X3122444Y-1754388D02*
X3112920Y-1773436D01*
X3112920Y-1773436D02*
X3103396Y-1782960D01*
X3103396Y-1782960D02*
X3084348Y-1792484D01*
X3084348Y-1792484D02*
X3027206Y-1792484D01*
X3027206Y-1792484D02*
X3008158Y-1782960D01*
X3008158Y-1782960D02*
X2998634Y-1773436D01*
X3198634Y-1592484D02*
X3198634Y-1630579D01*
X3274825Y-1592484D02*
X3274825Y-1630579D01*
X3570063Y-1868674D02*
X3560539Y-1859150D01*
X3560539Y-1859150D02*
X3541491Y-1830579D01*
X3541491Y-1830579D02*
X3531968Y-1811531D01*
X3531968Y-1811531D02*
X3522444Y-1782960D01*
X3522444Y-1782960D02*
X3512920Y-1735341D01*
X3512920Y-1735341D02*
X3512920Y-1697246D01*
X3512920Y-1697246D02*
X3522444Y-1649627D01*
X3522444Y-1649627D02*
X3531968Y-1621055D01*
X3531968Y-1621055D02*
X3541491Y-1602008D01*
X3541491Y-1602008D02*
X3560539Y-1573436D01*
X3560539Y-1573436D02*
X3570063Y-1563912D01*
X3731968Y-1659150D02*
X3731968Y-1792484D01*
X3684348Y-1582960D02*
X3636729Y-1725817D01*
X3636729Y-1725817D02*
X3760539Y-1725817D01*
X3989110Y-1792484D02*
X3989110Y-1592484D01*
X4074825Y-1792484D02*
X4074825Y-1687722D01*
X4074825Y-1687722D02*
X4065301Y-1668674D01*
X4065301Y-1668674D02*
X4046253Y-1659150D01*
X4046253Y-1659150D02*
X4017682Y-1659150D01*
X4017682Y-1659150D02*
X3998634Y-1668674D01*
X3998634Y-1668674D02*
X3989110Y-1678198D01*
X4198634Y-1792484D02*
X4179587Y-1782960D01*
X4179587Y-1782960D02*
X4170063Y-1773436D01*
X4170063Y-1773436D02*
X4160539Y-1754388D01*
X4160539Y-1754388D02*
X4160539Y-1697246D01*
X4160539Y-1697246D02*
X4170063Y-1678198D01*
X4170063Y-1678198D02*
X4179587Y-1668674D01*
X4179587Y-1668674D02*
X4198634Y-1659150D01*
X4198634Y-1659150D02*
X4227206Y-1659150D01*
X4227206Y-1659150D02*
X4246253Y-1668674D01*
X4246253Y-1668674D02*
X4255777Y-1678198D01*
X4255777Y-1678198D02*
X4265301Y-1697246D01*
X4265301Y-1697246D02*
X4265301Y-1754388D01*
X4265301Y-1754388D02*
X4255777Y-1773436D01*
X4255777Y-1773436D02*
X4246253Y-1782960D01*
X4246253Y-1782960D02*
X4227206Y-1792484D01*
X4227206Y-1792484D02*
X4198634Y-1792484D01*
X4379587Y-1792484D02*
X4360539Y-1782960D01*
X4360539Y-1782960D02*
X4351015Y-1763912D01*
X4351015Y-1763912D02*
X4351015Y-1592484D01*
X4531968Y-1782960D02*
X4512920Y-1792484D01*
X4512920Y-1792484D02*
X4474825Y-1792484D01*
X4474825Y-1792484D02*
X4455777Y-1782960D01*
X4455777Y-1782960D02*
X4446253Y-1763912D01*
X4446253Y-1763912D02*
X4446253Y-1687722D01*
X4446253Y-1687722D02*
X4455777Y-1668674D01*
X4455777Y-1668674D02*
X4474825Y-1659150D01*
X4474825Y-1659150D02*
X4512920Y-1659150D01*
X4512920Y-1659150D02*
X4531968Y-1668674D01*
X4531968Y-1668674D02*
X4541492Y-1687722D01*
X4541492Y-1687722D02*
X4541492Y-1706769D01*
X4541492Y-1706769D02*
X4446253Y-1725817D01*
X4617682Y-1782960D02*
X4636730Y-1792484D01*
X4636730Y-1792484D02*
X4674825Y-1792484D01*
X4674825Y-1792484D02*
X4693873Y-1782960D01*
X4693873Y-1782960D02*
X4703396Y-1763912D01*
X4703396Y-1763912D02*
X4703396Y-1754388D01*
X4703396Y-1754388D02*
X4693873Y-1735341D01*
X4693873Y-1735341D02*
X4674825Y-1725817D01*
X4674825Y-1725817D02*
X4646253Y-1725817D01*
X4646253Y-1725817D02*
X4627206Y-1716293D01*
X4627206Y-1716293D02*
X4617682Y-1697246D01*
X4617682Y-1697246D02*
X4617682Y-1687722D01*
X4617682Y-1687722D02*
X4627206Y-1668674D01*
X4627206Y-1668674D02*
X4646253Y-1659150D01*
X4646253Y-1659150D02*
X4674825Y-1659150D01*
X4674825Y-1659150D02*
X4693873Y-1668674D01*
X4770063Y-1868674D02*
X4779587Y-1859150D01*
X4779587Y-1859150D02*
X4798634Y-1830579D01*
X4798634Y-1830579D02*
X4808158Y-1811531D01*
X4808158Y-1811531D02*
X4817682Y-1782960D01*
X4817682Y-1782960D02*
X4827206Y-1735341D01*
X4827206Y-1735341D02*
X4827206Y-1697246D01*
X4827206Y-1697246D02*
X4817682Y-1649627D01*
X4817682Y-1649627D02*
X4808158Y-1621055D01*
X4808158Y-1621055D02*
X4798634Y-1602008D01*
X4798634Y-1602008D02*
X4779587Y-1573436D01*
X4779587Y-1573436D02*
X4770063Y-1563912D01*
X5131968Y-1868674D02*
X5122444Y-1859150D01*
X5122444Y-1859150D02*
X5103396Y-1830579D01*
X5103396Y-1830579D02*
X5093873Y-1811531D01*
X5093873Y-1811531D02*
X5084349Y-1782960D01*
X5084349Y-1782960D02*
X5074825Y-1735341D01*
X5074825Y-1735341D02*
X5074825Y-1697246D01*
X5074825Y-1697246D02*
X5084349Y-1649627D01*
X5084349Y-1649627D02*
X5093873Y-1621055D01*
X5093873Y-1621055D02*
X5103396Y-1602008D01*
X5103396Y-1602008D02*
X5122444Y-1573436D01*
X5122444Y-1573436D02*
X5131968Y-1563912D01*
X5208158Y-1659150D02*
X5208158Y-1792484D01*
X5208158Y-1678198D02*
X5217682Y-1668674D01*
X5217682Y-1668674D02*
X5236730Y-1659150D01*
X5236730Y-1659150D02*
X5265301Y-1659150D01*
X5265301Y-1659150D02*
X5284349Y-1668674D01*
X5284349Y-1668674D02*
X5293873Y-1687722D01*
X5293873Y-1687722D02*
X5293873Y-1792484D01*
X5417682Y-1792484D02*
X5398634Y-1782960D01*
X5398634Y-1782960D02*
X5389111Y-1773436D01*
X5389111Y-1773436D02*
X5379587Y-1754388D01*
X5379587Y-1754388D02*
X5379587Y-1697246D01*
X5379587Y-1697246D02*
X5389111Y-1678198D01*
X5389111Y-1678198D02*
X5398634Y-1668674D01*
X5398634Y-1668674D02*
X5417682Y-1659150D01*
X5417682Y-1659150D02*
X5446254Y-1659150D01*
X5446254Y-1659150D02*
X5465301Y-1668674D01*
X5465301Y-1668674D02*
X5474825Y-1678198D01*
X5474825Y-1678198D02*
X5484349Y-1697246D01*
X5484349Y-1697246D02*
X5484349Y-1754388D01*
X5484349Y-1754388D02*
X5474825Y-1773436D01*
X5474825Y-1773436D02*
X5465301Y-1782960D01*
X5465301Y-1782960D02*
X5446254Y-1792484D01*
X5446254Y-1792484D02*
X5417682Y-1792484D01*
X5541492Y-1659150D02*
X5617682Y-1659150D01*
X5570063Y-1592484D02*
X5570063Y-1763912D01*
X5570063Y-1763912D02*
X5579587Y-1782960D01*
X5579587Y-1782960D02*
X5598634Y-1792484D01*
X5598634Y-1792484D02*
X5617682Y-1792484D01*
X5836730Y-1659150D02*
X5836730Y-1859150D01*
X5836730Y-1668674D02*
X5855777Y-1659150D01*
X5855777Y-1659150D02*
X5893873Y-1659150D01*
X5893873Y-1659150D02*
X5912920Y-1668674D01*
X5912920Y-1668674D02*
X5922444Y-1678198D01*
X5922444Y-1678198D02*
X5931968Y-1697246D01*
X5931968Y-1697246D02*
X5931968Y-1754388D01*
X5931968Y-1754388D02*
X5922444Y-1773436D01*
X5922444Y-1773436D02*
X5912920Y-1782960D01*
X5912920Y-1782960D02*
X5893873Y-1792484D01*
X5893873Y-1792484D02*
X5855777Y-1792484D01*
X5855777Y-1792484D02*
X5836730Y-1782960D01*
X6046253Y-1792484D02*
X6027206Y-1782960D01*
X6027206Y-1782960D02*
X6017682Y-1763912D01*
X6017682Y-1763912D02*
X6017682Y-1592484D01*
X6208158Y-1792484D02*
X6208158Y-1687722D01*
X6208158Y-1687722D02*
X6198634Y-1668674D01*
X6198634Y-1668674D02*
X6179587Y-1659150D01*
X6179587Y-1659150D02*
X6141492Y-1659150D01*
X6141492Y-1659150D02*
X6122444Y-1668674D01*
X6208158Y-1782960D02*
X6189111Y-1792484D01*
X6189111Y-1792484D02*
X6141492Y-1792484D01*
X6141492Y-1792484D02*
X6122444Y-1782960D01*
X6122444Y-1782960D02*
X6112920Y-1763912D01*
X6112920Y-1763912D02*
X6112920Y-1744865D01*
X6112920Y-1744865D02*
X6122444Y-1725817D01*
X6122444Y-1725817D02*
X6141492Y-1716293D01*
X6141492Y-1716293D02*
X6189111Y-1716293D01*
X6189111Y-1716293D02*
X6208158Y-1706769D01*
X6274825Y-1659150D02*
X6351015Y-1659150D01*
X6303396Y-1592484D02*
X6303396Y-1763912D01*
X6303396Y-1763912D02*
X6312920Y-1782960D01*
X6312920Y-1782960D02*
X6331968Y-1792484D01*
X6331968Y-1792484D02*
X6351015Y-1792484D01*
X6493873Y-1782960D02*
X6474825Y-1792484D01*
X6474825Y-1792484D02*
X6436730Y-1792484D01*
X6436730Y-1792484D02*
X6417682Y-1782960D01*
X6417682Y-1782960D02*
X6408158Y-1763912D01*
X6408158Y-1763912D02*
X6408158Y-1687722D01*
X6408158Y-1687722D02*
X6417682Y-1668674D01*
X6417682Y-1668674D02*
X6436730Y-1659150D01*
X6436730Y-1659150D02*
X6474825Y-1659150D01*
X6474825Y-1659150D02*
X6493873Y-1668674D01*
X6493873Y-1668674D02*
X6503396Y-1687722D01*
X6503396Y-1687722D02*
X6503396Y-1706769D01*
X6503396Y-1706769D02*
X6408158Y-1725817D01*
X6674825Y-1792484D02*
X6674825Y-1592484D01*
X6674825Y-1782960D02*
X6655777Y-1792484D01*
X6655777Y-1792484D02*
X6617682Y-1792484D01*
X6617682Y-1792484D02*
X6598634Y-1782960D01*
X6598634Y-1782960D02*
X6589111Y-1773436D01*
X6589111Y-1773436D02*
X6579587Y-1754388D01*
X6579587Y-1754388D02*
X6579587Y-1697246D01*
X6579587Y-1697246D02*
X6589111Y-1678198D01*
X6589111Y-1678198D02*
X6598634Y-1668674D01*
X6598634Y-1668674D02*
X6617682Y-1659150D01*
X6617682Y-1659150D02*
X6655777Y-1659150D01*
X6655777Y-1659150D02*
X6674825Y-1668674D01*
X6751015Y-1868674D02*
X6760539Y-1859150D01*
X6760539Y-1859150D02*
X6779587Y-1830579D01*
X6779587Y-1830579D02*
X6789111Y-1811531D01*
X6789111Y-1811531D02*
X6798634Y-1782960D01*
X6798634Y-1782960D02*
X6808158Y-1735341D01*
X6808158Y-1735341D02*
X6808158Y-1697246D01*
X6808158Y-1697246D02*
X6798634Y-1649627D01*
X6798634Y-1649627D02*
X6789111Y-1621055D01*
X6789111Y-1621055D02*
X6779587Y-1602008D01*
X6779587Y-1602008D02*
X6760539Y-1573436D01*
X6760539Y-1573436D02*
X6751015Y-1563912D01*
M02*
