%TF.GenerationSoftware,KiCad,Pcbnew,7.0.9*%
%TF.CreationDate,2024-12-01T07:09:43+09:00*%
%TF.ProjectId,raspi_comm_if_hat,72617370-695f-4636-9f6d-6d5f69665f68,rev?*%
%TF.SameCoordinates,PX5f5e100PY68e7780*%
%TF.FileFunction,Soldermask,Bot*%
%TF.FilePolarity,Negative*%
%FSLAX46Y46*%
G04 Gerber Fmt 4.6, Leading zero omitted, Abs format (unit mm)*
G04 Created by KiCad (PCBNEW 7.0.9) date 2024-12-01 07:09:43*
%MOMM*%
%LPD*%
G01*
G04 APERTURE LIST*
G04 Aperture macros list*
%AMRoundRect*
0 Rectangle with rounded corners*
0 $1 Rounding radius*
0 $2 $3 $4 $5 $6 $7 $8 $9 X,Y pos of 4 corners*
0 Add a 4 corners polygon primitive as box body*
4,1,4,$2,$3,$4,$5,$6,$7,$8,$9,$2,$3,0*
0 Add four circle primitives for the rounded corners*
1,1,$1+$1,$2,$3*
1,1,$1+$1,$4,$5*
1,1,$1+$1,$6,$7*
1,1,$1+$1,$8,$9*
0 Add four rect primitives between the rounded corners*
20,1,$1+$1,$2,$3,$4,$5,0*
20,1,$1+$1,$4,$5,$6,$7,0*
20,1,$1+$1,$6,$7,$8,$9,0*
20,1,$1+$1,$8,$9,$2,$3,0*%
G04 Aperture macros list end*
%ADD10R,1.600000X1.600000*%
%ADD11O,1.600000X1.600000*%
%ADD12RoundRect,0.250000X-0.600000X-0.725000X0.600000X-0.725000X0.600000X0.725000X-0.600000X0.725000X0*%
%ADD13O,1.700000X1.950000*%
%ADD14C,2.700000*%
%ADD15C,1.700000*%
%ADD16RoundRect,0.250000X0.725000X-0.600000X0.725000X0.600000X-0.725000X0.600000X-0.725000X-0.600000X0*%
%ADD17O,1.950000X1.700000*%
%ADD18R,1.700000X1.700000*%
%ADD19O,1.700000X1.700000*%
G04 APERTURE END LIST*
D10*
%TO.C,SW1*%
X54900000Y2200000D03*
D11*
X54900000Y9820000D03*
%TD*%
D12*
%TO.C,J6*%
X28100000Y4700000D03*
D13*
X30600000Y4700000D03*
X33100000Y4700000D03*
X35600000Y4700000D03*
%TD*%
D14*
%TO.C,H4*%
X61500000Y3500000D03*
%TD*%
%TO.C,H2*%
X61500000Y52500000D03*
%TD*%
D15*
%TO.C,Y1*%
X62100000Y24900000D03*
X59600000Y24900000D03*
X57100000Y24900000D03*
%TD*%
D16*
%TO.C,J4*%
X61200000Y17250000D03*
D17*
X61200000Y19750000D03*
%TD*%
D12*
%TO.C,J1*%
X41600000Y4700000D03*
D13*
X44100000Y4700000D03*
X46600000Y4700000D03*
X49100000Y4700000D03*
%TD*%
D12*
%TO.C,J3*%
X14600000Y4700000D03*
D13*
X17100000Y4700000D03*
X19600000Y4700000D03*
X22100000Y4700000D03*
%TD*%
D14*
%TO.C,H1*%
X3500000Y52500000D03*
%TD*%
D18*
%TO.C,J5*%
X50850000Y17250000D03*
D19*
X50850000Y19790000D03*
X50850000Y22330000D03*
X50850000Y24870000D03*
%TD*%
D14*
%TO.C,H3*%
X3500000Y3500000D03*
%TD*%
D18*
%TO.C,J2*%
X8400000Y51210000D03*
D19*
X8400000Y53750000D03*
X10940000Y51210000D03*
X10940000Y53750000D03*
X13480000Y51210000D03*
X13480000Y53750000D03*
X16020000Y51210000D03*
X16020000Y53750000D03*
X18560000Y51210000D03*
X18560000Y53750000D03*
X21100000Y51210000D03*
X21100000Y53750000D03*
X23640000Y51210000D03*
X23640000Y53750000D03*
X26180000Y51210000D03*
X26180000Y53750000D03*
X28720000Y51210000D03*
X28720000Y53750000D03*
X31260000Y51210000D03*
X31260000Y53750000D03*
X33800000Y51210000D03*
X33800000Y53750000D03*
X36340000Y51210000D03*
X36340000Y53750000D03*
X38880000Y51210000D03*
X38880000Y53750000D03*
X41420000Y51210000D03*
X41420000Y53750000D03*
X43960000Y51210000D03*
X43960000Y53750000D03*
X46500000Y51210000D03*
X46500000Y53750000D03*
X49040000Y51210000D03*
X49040000Y53750000D03*
X51580000Y51210000D03*
X51580000Y53750000D03*
X54120000Y51210000D03*
X54120000Y53750000D03*
X56660000Y51210000D03*
X56660000Y53750000D03*
%TD*%
M02*
